<?xml version="1.0" encoding="utf-8"?>
<!-- Generator: Adobe Illustrator 28.2.0, SVG Export Plug-In . SVG Version: 6.00 Build 0)  -->
<svg version="1.1" id="Calque_1" xmlns="http://www.w3.org/2000/svg" xmlns:xlink="http://www.w3.org/1999/xlink" x="0px" y="0px"
	 viewBox="0 0 287.3 254" style="enable-background:new 0 0 287.3 254;" xml:space="preserve">
<style type="text/css">
	.st0{fill:#FFFFFF;}
</style>
<g>
	<path class="st0" d="M0,195.8c0-10.7,0-20.8,0-30.9c0-6.3-0.1-12.7,0.1-19c0.1-1.5,1-3.7,2.2-4.2c18.2-8.5,36.2-17.5,54.8-25
		c13.7-5.6,28.4-7.4,43-2.8c5.1,1.6,9.8,4.3,14.1,7.6c-5.5,1-11.1,1.6-16.4,3.2c-11.6,3.5-17.4,11.5-15.1,20.1
		c2.3,8.7,12.4,13.6,23.7,11.6c12-2.2,22.5-7.8,32.9-13.8c12.1-6.9,24-14.3,36.4-20.8c14.5-7.6,30-11.5,46.6-10.1
		c8.7,0.7,15.9,3.2,23,9.1c-3.9,0-6.9-0.2-9.9,0c-8.9,0.8-16.4,4.3-20.8,12.5c-3.9,7.4-1,15.2,6.6,18.6c10.3,4.6,20.9,3.3,31.4,1.2
		c11.3-2.2,22.5-5.3,34.1-8.1c0,16.7,0,33.5,0,50.7C191.3,195.8,96.1,195.8,0,195.8z"/>
	<path class="st0" d="M244.4,46.1c-5.6-5.3-12.3-7.5-19.7-8.3c-16.7-1.8-32.6,1.4-47.3,9.1C163,54.4,149,62.9,134.9,70.9
		c-9.3,5.3-18.9,10-29.6,11.1c-3.9,0.4-8,0.2-11.8-0.9c-5.8-1.6-9.7-5.8-10.9-11.8c-1.2-6.2,1.5-11,6.3-14.8
		c6.2-4.8,13.6-6,21.1-6.9c1.3-0.1,2.6,0,5.3,0c-7.7-6.5-15.5-9.1-24-9.9c-16.2-1.6-31.4,2.5-46,9.2C31.3,53.3,17.6,60.1,3.8,66.6
		c-1,0.5-2.1,0.8-3.5,1.3c0-22.8,0-45.2,0-67.9c95.6,0,190.9,0,286.6,0c0.1,1.5,0.3,2.9,0.3,4.4c0,20.3-0.1,40.7,0.1,61
		c0,3.7-1.2,5.2-4.6,6.2c-15.3,4.5-30.7,8.9-46.8,9c-3.3,0-6.7-0.5-9.9-1.2c-6.4-1.5-11.6-4.9-12.9-11.7c-1.3-6.8,2.4-11.9,7.5-15.8
		C227.6,46.5,235.7,45.4,244.4,46.1z"/>
	<path class="st0" d="M142.3,253.5c0-13.5,0-26.4,0-39.8c5.6,0,11.1-0.4,16.5,0.1c7.6,0.7,12,9.3,9.2,16.6c-0.6,1.5-1.1,3.7-0.4,4.7
		c4.9,7.1-0.3,18.1-10.8,18.3C152.3,253.6,147.6,253.5,142.3,253.5z M150.6,220.7c0,4,0,6.4,0,10.1c3.8-1.2,7-2,9.9-3.3
		c0.5-0.2,0.4-3.6-0.1-3.8C157.4,222.4,154.2,221.7,150.6,220.7z M150.6,246.9c4.1-1.6,7.2-2.6,10.1-4c0.4-0.2,0.1-3.7-0.4-3.8
		c-3.1-0.9-6.3-1.3-9.6-1.9C150.6,240.6,150.6,242.8,150.6,246.9z"/>
	<path class="st0" d="M0.4,213.7c5.3,0,10.2-0.2,15,0c8.6,0.4,13.7,8.7,10.7,16.8c-0.6,1.6-0.5,4,0.2,5.6c3.1,7.4-0.6,15.6-8.6,16.7
		c-5.5,0.8-11.2,0.1-17.2,0.1C0.4,240.2,0.4,227.2,0.4,213.7z M8.1,230.8c4.1-1.3,7.4-2.2,10.4-3.6c0.4-0.2,0-4.1-0.6-4.3
		c-3.1-1-6.3-1.3-9.8-1.8C8.1,224.6,8.1,226.8,8.1,230.8z M8.1,246.7c4.1-1.4,7.4-2.3,10.5-3.6c0.4-0.2,0.2-3.7-0.3-3.9
		c-3.2-1-6.6-1.4-10.2-2.1C8.1,240.5,8.1,242.7,8.1,246.7z"/>
	<path class="st0" d="M194.2,253.7c-11.3-0.1-20.3-9.2-20.2-20.3c0.1-11,9.6-20.5,20.4-20.5c11.5,0,20.6,9.5,20.4,21.2
		C214.7,245.5,205.9,253.8,194.2,253.7z M194.8,246c6.8-0.1,12.4-5.6,12.5-12.3c0.1-6.8-5.9-13-12.5-13c-6.9-0.1-13.1,6.2-13.1,13
		C181.8,240.3,187.9,246.1,194.8,246z"/>
	<path class="st0" d="M250.7,214.1c0,13.2,0,26.2,0,39.1c-0.4,0.3-0.8,0.5-1.3,0.8c-7.5-6.2-12.7-14.7-20.5-22.2
		c0,7.6,0,14.3,0,21.3c-2.8,0-5.1,0-7.8,0c0-13,0-26,0-40.3c2.1,1.4,4,2.1,5.2,3.4c5.4,6,10.6,12.2,16.6,19.1c0-7.6,0-14.2,0-21.2
		C245.7,214.1,248,214.1,250.7,214.1z"/>
	<path class="st0" d="M286.5,215.3c-1,2.4-2,4.4-3,6.8c-6.6-2.7-12.1-1.3-16.1,4.1c-3,4-3.4,8.6-1,13.2c2.4,4.7,6.3,6.6,12.9,6.3
		c0-3.9,0-7.8,0-12.1c2.7-0.1,4.9-0.2,7.9-0.4c0,5.8,0.3,11.4-0.2,16.9c-0.1,1.3-3,2.8-4.8,3.3c-8.8,2.1-17.9-2-22.2-9.6
		c-4.3-7.5-3.4-17.2,1.9-23.3C268.4,213,276.9,211.1,286.5,215.3z"/>
	<path class="st0" d="M102.3,253.5c5.7-13.8,11-27,16.4-40.1c0.6,0,1.1,0,1.7,0c5.4,13.2,10.8,26.3,16.4,40.1
		c-4.1-0.6-7.2,1-10.8-2.7c-2.3-2.3-10.7-2.3-12.9,0C109.5,254.6,106.3,252.6,102.3,253.5z M123.1,241.4c-1.1-3.2-2-6-3.4-10.1
		c-1.6,4.2-2.7,7-3.8,10.1C118.2,241.4,120.2,241.4,123.1,241.4z"/>
	<path class="st0" d="M69.7,253.2c-7.2,0-13.5,0-20,0c0-13.2,0-26.1,0-39.2c2.5,0,4.8,0,7.6,0c0,10.3,0,20.7,0,31.4
		c4.5,0,8.4,0,12.4,0C69.7,248.2,69.7,250.8,69.7,253.2z"/>
	<path class="st0" d="M76.8,213.8c2.6,0,4.8,0,7.5,0c0,10.5,0,20.9,0,31.6c4.5,0,8.5,0,12.5,0c0,2.7,0,5.1,0,7.8c-6.7,0-13.1,0-20,0
		C76.8,240.2,76.8,227.2,76.8,213.8z"/>
	<path class="st0" d="M41.3,253.3c-2.4,0-4.7,0-7.4,0c0-13.1,0-26,0-39.2c2.2,0,4.6,0,7.4,0C41.3,226.9,41.3,240,41.3,253.3z"/>
</g>
</svg>
