<?xml version="1.0" encoding="utf-8"?>
<!-- Generator: Adobe Illustrator 28.2.0, SVG Export Plug-In . SVG Version: 6.00 Build 0)  -->
<svg version="1.1" id="Layer_1" xmlns="http://www.w3.org/2000/svg" xmlns:xlink="http://www.w3.org/1999/xlink" x="0px" y="0px"
	 viewBox="0 0 524.7 631" style="enable-background:new 0 0 524.7 631;" xml:space="preserve">
<style type="text/css">
	.st0{fill:#FFFFFF;}
</style>
<path class="st0" d="M524.7,302.6l-0.1,0.3c-0.6,0-1.2,0-1.8,0c0-23.5,2.4-47.4-0.6-70.6c-3.4-26.9-9-54.1-18.2-79.5
	c-9.3-25.7-27.2-47.1-47.9-65.5c-2.5-2.2-5.8-3.5-8.7-5.3c-7.1-4.4-14.8-8-21.1-13.4c-24.6-21-53.6-34.7-82.6-47.8
	C320.1,10.1,295,3.6,268.5,1.7c-16.8-1.3-33.1-2.6-49.9,0c-12.5,2-25.3,1.6-38,2.5c-3,0.2-6.3,0.7-8.9,2.1
	c-22.5,12.4-44.3,26-67.2,37.5c-30.6,15.4-44.8,46.8-69.1,68.1c-0.7,0.6-1.1,1.5-1.4,2.4c-9.1,26.2-20.6,51.6-20.5,80.5
	c0.1,12.9-2.2,26.7-6.9,38.8c-7.8,19.9-9.3,38.6-1.2,58.6c3.7,9,6,19.2,6,28.8c-0.2,29.3,0.7,58.1,9,86.6c4.2,14.7,9,24.8,26.6,24.4
	c6.7-0.1,13.5,4.3,20.2,6.7c4.4,1.5,8.7,4.3,13.1,4.6c9.7,0.7,11.3,6.7,11.8,14.4c0.9,12.3-3.7,24.9,7.2,36.4
	c6.7,7,9,18.4,12.6,28.1c1.6,4.4,2.6,9.6,1.9,14.1c-2.2,14.4-6.2,28.6-7.7,43c-0.7,7.1,0.8,15.8,4.6,21.6c6.4,9.7,15.1,18,23.7,26
	c3,2.8,8.6,4.6,12.8,4.2c29.5-2.5,59-5.5,88.4-8.8c10-1.1,20.4-2.3,29.5-6.1c8.6-3.6,15.7-10.9,23.7-16.2
	c19.1-12.7,38.8-24.6,57.3-38.1c10-7.2,20.1-12.7,31.7-16.8c14.7-5.3,31.8-10.8,35.1-28.5c3.1-16.4,12.1-21.9,26.8-22.7
	c2.5-0.2,5.1-0.6,7.2-1.7c2.6-1.4,5.6-3,6.8-5.4c5.3-10.2,9.2-21.1,15-31c10.2-17.3,19.7-35.4,32.5-50.6
	c12.5-14.9,23.2-29.4,23.5-49.5C524.9,338,524.7,320.3,524.7,302.6z M91.2,219.6c-5.5,9-4.9,17.8-2.8,27.6
	c2.3,11.2,3.2,22.7,3.6,34.1c0.1,3.8-1.9,9-4.8,11.4C72.9,304.5,59.4,317.4,40,321c-11.4,2.1-13.2,1.4-12.9-11.9l0.2,0
	c2.6-7.7-1-15.3-5.2-23.7c-11.5-23-7.7-40.7,10.4-58.5c6.8-6.7,12.7-14.4,19.8-20.8c9.2-8.3,30.4-7.2,38.3,2.2
	C92.6,210.7,92.9,216.8,91.2,219.6z M121.7,201.3c5.9-0.9,9.6,5.9,12.8,10c15.1,19.9,28.4,41.6,52.9,52.3c-0.3,0.8-0.5,1.6-0.8,2.4
	c-4.7-0.6-9.5-0.7-14-1.9c-4.8-1.2-9.3-3.5-14-5.3c-0.6,0.9-1.3,1.7-1.9,2.6c15.6,26.6,35,52.9,7.2,84.8c-3.9-6.9-7-12.4-10.7-18.8
	c-2.5,1.6-5.5,3.5-8.5,5.4c-2.3,1.5-4.5,3.7-7,4c-16,1.7-12.8,8.8-7.3,20.8c-11.6-3.1-16.6-8.6-17.7-19.3
	c-3.7-34.8-7.3-69.7-10.8-104.5C100.7,220.9,110.3,205.1,121.7,201.3z M110.5,482.4c-7-9.8-3.9-37.2,4.8-45.1
	c0.7-0.6,1.6-0.9,4.6-2.6c2.6,5.5,6,10.5,7.3,16c1.4,5.9,2.4,12.9,0.6,18.4c-1.9,5.8-7.1,10.7-11.3,15.6
	C116,485.3,111.6,483.9,110.5,482.4z M131.7,511.5c-1.3,2.6-2.9,5.7-4.5,8.8c-2.9-2.3-6.9-3.9-8.6-6.9c-2.5-4.4-4.4-9.7-4.7-14.8
	c-0.2-3.3,2.8-6.7,4.4-10.1c3.1,1.9,7.6,3.1,9,5.9c2.5,4.8,3,10.5,4.6,17L131.7,511.5z M133.1,475.3c10.6,10.5,9,23.9,11.4,37.8
	C131,503.7,125.3,484.1,133.1,475.3z M137.7,465.1c-0.7-4.3-0.5-8.7-0.7-13v0.1c-0.7-9,0.4-17.7,8.2-23.4c2.6-1.9,7.9-3,10.4-1.6
	c9.1,5,16.1,11.3,17.6,23.2c2.9,23,3.6,22.9-18.9,26.7C142.2,479.1,139.7,477.4,137.7,465.1z M177.7,492.7
	C177.7,492.7,177.7,492.7,177.7,492.7c-0.5,2.9,0,6.7-1.6,8.1c-2.6,2.2-7,4.5-9.8,3.7c-4.8-1.3-6.3-22.5-2.1-25.4
	c5.3-3.6,9.6-1.7,11.9,3.8C177.3,486,177.2,489.5,177.7,492.7c0-0.1,0-0.1,0-0.1V492.7z M215.9,506.6c-3.1,0.5-8-3.1-10.3-6.2
	c-7-9.3-7.2-12.8-4.5-28.3c-4.4,0.8-8,1.5-10.1,1.9c2.4,10.7,4.8,21.5,7.3,32.3c-1.3,0.3-2.6,0.7-3.9,1
	c-3.8-10.3-15.5-17.4-11.1-31.1c0.3-0.8,0.3-2-0.1-2.4c-10.2-9.5-5.1-21.4-3.3-31.5c1.7-10.1,8.2-19.4,12.7-29.4
	c20.3,13.9,19.6,31.3,12.6,50c13.2-0.7,20.3,5.4,21,17.1c0.3,4.7-0.1,9.4,0.4,14C227.6,502.3,221.9,505.6,215.9,506.6z M426.6,441.7
	c-13.6-12.6-27.1-25.3-42.4-39.7c4.8,0.9,7.4,1.4,11.5,2.2c-23.5-30.9-46.1-60.6-68.7-90.4c-0.7,0.2-1.3,0.5-1.9,0.8
	c1.4,4.8,2.8,9.5,4.2,14.3l-1.4,1.1c-2-2.3-4.1-4.5-6-6.8c-18.6-22.8-37.4-45.6-55.8-68.7c-3.9-5-7.7-6.8-14.1-6.2
	c-12,1.1-24.1,0.9-36.2,1.3c-11.2,0.4-18.9-5.1-23.9-14.7c-8.6-16.7-12-34.6-5.9-52.3c4.3-12.7,7.7-23.5-7-33.3
	c4.2-1.2,6.3-1.7,9.1-2.5c-12.2-18.9-24.2-37.2-36.1-55.5c0.5-0.5,1-1,1.5-1.5c15.4,11.4,30.9,22.9,46.4,34.3
	c-0.2,0.4-0.4,0.9-0.6,1.3c-3.4-0.7-6.9-1.3-12.1-2.3c6.5,7.7,11.8,14.1,17.4,20.2c3.9,3.5,10.1,1.8,14.9,1.1
	c15.8-2.8,30.8-3.2,45.3,6.8c9.6,6.6,21.3,10,32.2,14.5c11.8,4.9,14.8,9.4,12.8,22.1c-2.5,15.5-6.1,30.5-19.4,41
	c-2.4,1.8-4.2,4.5-6.7,7.3l0.2,0.4c6.6,7.7,13,15.2,20.2,23.7c0.7-3.4,1.2-5.7,2.1-10c41.4,64.5,81.7,127.3,122,190.1
	C427.6,440.7,427.1,441.2,426.6,441.7z"/>
</svg>
