<?xml version="1.0" encoding="utf-8"?>
<!-- Generator: Adobe Illustrator 28.2.0, SVG Export Plug-In . SVG Version: 6.00 Build 0)  -->
<svg version="1.1" id="Calque_1" xmlns="http://www.w3.org/2000/svg" xmlns:xlink="http://www.w3.org/1999/xlink" x="0px" y="0px"
	 viewBox="0 0 527.4 528.4" style="enable-background:new 0 0 527.4 528.4;" xml:space="preserve">
<style type="text/css">
	.st0{fill:#FFFFFF;}
</style>
<g>
	<path class="st0" d="M455.2,263.1c0,106-85.4,191.8-191,192.7C159.7,456.7,72,371.5,70.6,267.2C69.2,159,154.7,73,258.9,71.3
		C367.6,69.6,453.9,154.4,455.2,263.1z M287.7,400.1c61.9-9.7,121-69.3,113.8-149.6c-6.4-72.2-69.1-130.2-147.1-126.1
		c-74.3,3.9-132.8,67.5-130.7,143.6c2.1,75.3,62,125,113.6,131.7c0-20.4,0-40.7,0-61.6c-20.7,7.9-41,15.5-61.7,23.3
		c0-16.6,0.2-32.2-0.1-47.9c-0.1-4.3,1.4-6,5.3-7.4c17.6-6.5,35.2-13.3,52.7-20.1c1.6-0.6,3.8-2.2,4-3.6c0.5-4.7,0.2-9.5,0.2-14.8
		c-21.1,8.1-41.3,15.9-62,23.8c0-17.4-0.1-34.3,0.1-51.1c0-1.2,2-2.8,3.4-3.4c18.3-7.1,36.7-14.1,55-21.2c1.3-0.5,3.3-1.8,3.4-2.8
		c0.4-5,0.2-10.1,0.2-15.8c-21,8.1-41.2,16-62,24c0-17.5-0.1-34.2,0.2-50.8c0-1.3,1.9-3.3,3.4-3.9c22.7-9.2,45.6-17.7,68-27.5
		c10.8-4.8,20-5,30.9,0c21.9,10,44.6,18.4,66.9,27.6c1.5,0.6,3.3,2.6,3.4,4c0.2,16.6,0.2,33.3,0.2,50.7
		c-20.5-7.9-40.5-15.6-61.1-23.6c0,5.6-0.2,10.4,0.1,15.2c0.1,1.1,1.7,2.7,3,3.1c18.1,7.1,36.3,14.1,54.6,20.8c2.7,1,3.5,2.2,3.5,5
		c-0.1,15.3-0.1,30.7-0.1,46c0,1.1-0.2,2.1-0.4,3.7c-20.4-7.9-40.3-15.6-60.7-23.5c0,4.7,0.2,8.7-0.1,12.7c-0.2,3.2,1,4.6,4,5.7
		c17.9,6.7,35.8,13.5,53.6,20.5c1.4,0.5,3.4,2.2,3.4,3.4c0.2,16.8,0.2,33.6,0.2,51.3c-20.6-7.9-40.6-15.5-60.9-23.3
		C287.7,359.1,287.7,379.4,287.7,400.1z"/>
	<path class="st0" d="M474.4,289.2c17.7,0,35.1,0,52.6,0C518,409.9,412.7,528,264.1,528.4C118.2,528.8,10.3,414.1,0,289.1
		c17.4,0,34.8,0,52.6,0c9.2,63.6,39.6,114.5,93,150.8c40.7,27.7,86.2,38.9,135.1,35.2C374.9,467.9,460.5,395.6,474.4,289.2z"/>
	<path class="st0" d="M468,94.8c34.1,41.6,53.7,89.1,59.4,143.2c-14.1,0-27.5,0-41,0c-12.1,0-11.8-0.1-14-12.2
		c-6-33.5-19.3-63.9-40-91c-0.7-0.9-1.3-1.9-2-2.9C443,119.6,455.3,107.4,468,94.8z"/>
	<path class="st0" d="M237.7,52.8c-39.2,4.9-74.2,19.6-105.1,43.5c-12.4-12.6-24.6-25-36.9-37.5c19.2-24.3,99.8-58.1,142-58.8
		C237.7,17.4,237.7,34.8,237.7,52.8z"/>
	<path class="st0" d="M394.3,94.4c-14.6-8.1-28.9-16.8-43.9-24.3c-18.1-9-37.7-14-57.7-16.8c-1.4-0.2-3.7-2-3.7-3.1
		c-0.2-16.5-0.2-32.9-0.2-49.2c28.3-5.5,115.4,29.9,141.9,57.4C418.4,70.5,406.1,82.7,394.3,94.4z"/>
	<path class="st0" d="M52.7,237.5c-17.9,0-35.2,0-52.4,0c-3.5-31.5,28-108.3,57.8-141.2c12.2,12.4,24.4,24.9,37,37.8
		c-10.8,14.3-20.5,30.6-27.9,48.4C60,200.1,55.3,218.4,52.7,237.5z"/>
</g>
</svg>
