<?xml version="1.0" encoding="utf-8"?>
<!-- Generator: Adobe Illustrator 28.2.0, SVG Export Plug-In . SVG Version: 6.00 Build 0)  -->
<svg version="1.1" id="Calque_1" xmlns="http://www.w3.org/2000/svg" xmlns:xlink="http://www.w3.org/1999/xlink" x="0px" y="0px"
	 viewBox="0 0 651.3 194" style="enable-background:new 0 0 651.3 194;" xml:space="preserve">
<style type="text/css">
	.st0{fill:#FFFFFF;}
</style>
<g>
	<path class="st0" d="M404,191c0-15.7,0-30.8,0-46.5c3.7,0,7.1,0,11.1,0c-0.3-1.8-0.4-3-0.7-4.2c-3-9.9-5.4-20-9.2-29.6
		c-3.5-8.9-1.6-16.9,1.6-26.3c3.7,12.7,7.2,24.4,10.8,36.7c3.9-1.1,7.5-2.1,11.6-3.3c-2.7-9.2-5.3-18.1-7.8-27
		c-1.7-5.8-3.3-11.5-5-17.3c-3-9.9-10.2-15.8-20.4-16.2c-7.5-0.3-15-0.4-22.5-0.1c-8.1,0.4-15.1,4-17.9,11.6
		c-5.7,15.7-10.3,31.9-15.6,48.4c4.1,1.3,7.6,2.4,11.7,3.7c3.8-12.3,7.5-24.3,11.3-36.3c2.4,7.4,5.8,14.2,2.9,22.4
		c-4.2,11.9-7.5,24.1-11.4,37.2c3,0,5.4-0.3,7.7,0.1c1.3,0.2,3.3,1.5,3.4,2.4c0.2,14.6,0.1,29.2,0.1,44.1c-23.6,0-46.6,0-69.9,0
		c0-62,0-124,0-186.5c2.2-0.1,4-0.3,5.7-0.3c36,0.2,72,0.6,108,0.7c14.2,0.1,28.3,0.7,41.7,6.2c28.8,11.7,42.5,45.5,28.5,72.5
		c-3.6,6.9-9.5,12.6-14.9,19.3c13.8,16.1,23.6,35.7,30.5,57.1c0-51.3,0-102.7,0-154.4c26.8,0,53.6,0,81.7,0c0,46.3,0,92.6,0,139.5
		c3.1,0,5,0,7,0c20.2,0,40.3,0.2,60.5,0c5-0.1,6.2,1.7,6.2,6.3c-0.1,11.5,0.2,23,0.7,34.5c0.2,4.3-0.9,5.8-5.4,5.8
		c-29.5-0.2-59-0.3-88.5-0.3c-49.7-0.1-99.3-0.1-149-0.1C407.1,191.3,405.8,191.1,404,191z M384.7,52.2c9.1,0.1,16.6-7.2,16.9-16.2
		c0.2-9.4-7.4-17.4-16.8-17.5C375.7,18.3,368,26,368,35.3C368,44.5,375.5,52.1,384.7,52.2z"/>
	<path class="st0" d="M194.3,191.4c-21,0.8-40.9,1.8-60.9,2.4c-23.2,0.8-46.1-1.1-68.7-7.3C17.9,173.8-3.6,126.2,0.5,87.3
		C5.5,40.1,39.1,6.4,89.4,1c37.6-4,72.8,4.1,106,21.7c1.4,0.8,2.8,1.7,4.6,2.9c-13.5,18.6-26.8,36.9-40.3,55.5
		c-2.8-1.1-5.3-2.2-7.9-3.2c-13.8-5.8-28.1-9.5-43.2-8.7c-7.9,0.4-15.1,2.9-20.8,8.6c-7.3,7.3-9,16.2-6.5,25.8
		c2.5,9.3,9.9,12.9,18.5,14.6c3.4,0.7,6.9,0.8,11.1,1.2c0-10,0-19.4,0-29.3c28.3,0,55.8,0,83.4,0
		C194.3,123.8,194.3,157.1,194.3,191.4z"/>
	<path class="st0" d="M286.4,191.2c-21.8,0-42.4,0-63.1,0c-5.2,0-10.3-0.4-15.5,0c-4.2,0.3-4.9-1.4-4.9-5.2
		c0.5-44.2,0.9-88.3,1.2-132.5c0.1-16.3,0-32.6,0-49.3c27.9,0,54.9,0,82.2,0C286.4,66.5,286.4,128.6,286.4,191.2z"/>
	<path class="st0" d="M385.5,191.7c-1.1-1.1-3-2.3-3.1-3.4c-0.3-13.6-0.3-27.3-0.2-40.9c0-1,1.5-2,2.3-3c0.8,1,2.3,2,2.3,2.9
		c0.1,14.5,0.1,28.9,0.1,43.4C386.5,191,386,191.3,385.5,191.7z"/>
</g>
</svg>
