<?xml version="1.0" encoding="utf-8"?>
<!-- Generator: Adobe Illustrator 28.2.0, SVG Export Plug-In . SVG Version: 6.00 Build 0)  -->
<svg version="1.1" id="Calque_1" xmlns="http://www.w3.org/2000/svg" xmlns:xlink="http://www.w3.org/1999/xlink" x="0px" y="0px"
	 viewBox="0 0 414 427.4" style="enable-background:new 0 0 414 427.4;" xml:space="preserve">
<style type="text/css">
	.st0{fill:#FFFFFF;}
</style>
<g>
	<path class="st0" d="M71.7,92.1c21.4,28.7,50,47,83.3,60.8c-10.4-35.5-31.3-62.5-59.4-85.2c34.2-26.7,72.2-40.4,114.7-39.9
		C252.6,28.2,290,43,323.2,70c-29,22.7-50.5,49.8-62.4,85.7c35.8-11.5,64.1-31.3,86.5-59.8c55.8,64,50.4,165.5-4.1,225.6
		c-21.6-28-48.3-49.1-83.2-61.1c6.9,16.9,14.8,32,25,45.7c10.2,13.7,21.5,26.6,32.8,40.3c-27.2,22.3-59.2,36.2-95.6,38.8
		c-48.5,3.5-92.2-9.2-130.4-41.2c27.5-23.4,47.8-51.4,62.7-85.1c-36.1,11.1-64.4,31.3-87.1,59.6C10.2,251,18.4,148.6,71.7,92.1z
		 M289.1,72.6C243,40.1,167.4,44.7,131.6,70.2c27.3,32.1,48.3,67.1,51.9,111.1c-43-7.4-79.5-26.1-110.5-55.7
		c-14.5,20.8-27.3,57.4-22.4,98.9c2.5,20.8,7.4,41,19,59.5c32.4-29,68.5-48.4,112.4-52.6c-2.4,21.8-9.1,41.4-18.9,60.1
		c-9.7,18.6-22.4,35.2-37.1,50.3c52.2,34,124.6,25.5,158.4,0.2c-0.6-0.8-1.2-1.6-1.8-2.3c-18.7-24.2-34.9-49.9-44.3-79.3
		c-2.9-9-5.1-18.1-4.7-28.3c21.2,2.5,40.3,9.6,58.7,19.1c18.5,9.5,34.7,22.1,49.8,36.3c28.7-40,31.5-115.9,2.9-158.1
		c-31.3,29.5-67.9,47.5-111.2,52.6C239.5,138.3,257.6,102.2,289.1,72.6z"/>
	<path class="st0" d="M12.7,206.9c0.3,31.1,6.3,59.4,20.3,85.9c1.1,2.1,2.5,4.1,2.9,6.3c0.3,1.4-0.3,3.8-1.4,4.6
		c-4.2,3.1-9.6,1.5-12-3.1C6.9,271.3,0.1,239.9,0,206.9C-0.3,121.8,58.4,29.7,159.9,6.2c80.6-18.7,148.9,5.3,204.2,66.1
		c24.9,27.3,40.1,60.1,46.5,96.3c8.4,47.3,1.2,92.4-21.7,134.8c-1.9,3.5-8.9,5.5-12.1,3.5c-2.9-1.8-1.5-4.1-0.5-6.5
		c5.8-13.6,12.9-26.8,16.9-40.9c26.5-91.8-14.2-183.8-100.1-227C258.4,15,221.6,9,183.1,14.2C102.8,25,39.5,82.4,19.2,157.8
		C14.7,174.3,13,191.2,12.7,206.9z"/>
	<path class="st0" d="M366.9,307.7c4.6,9.6,2.4,22.4,14.6,28.5c-2.2,2.8-4,5-6.3,7.8c-8.1-9.3-18.6-7.5-30.1-7.5
		c7.3,6.9,13.7,13,20.1,19.1c-5.9,9.8-15.5,2.6-23.2,5.6c2.7,3.1,5.4,6.2,8.2,9.5c-2.5,2.2-4.7,4.2-7.4,6.6
		c-6.3-7.3-12.5-14.3-18.6-21.4c5.1-9,13.7-3.8,21.1-6c-2.2-2.4-4.3-4.6-6.7-7.1c4.3-4.9,8.4-9.9,13-14.5c1.1-1.1,3.7-0.7,5.6-0.8
		c1.8-0.1,3.6,0,6.2,0C360.8,320.1,359,313,366.9,307.7z"/>
	<path class="st0" d="M269,407.6c-2.7,4.6,0,12.1-8.1,12.4c-5.8,0.2-4.3-6.4-8.2-8.4c-0.3,1.5-0.7,2.9-1,4.5
		c-1.2,7.3-1.2,7.3-9.4,8.1c0.6-9.5,1-19,2-28.4c0.1-1.2,3-2.5,4.9-2.9c1.4-0.3,3.6,0.3,4.5,1.3c1.7,1.7,2.7,4.1,4.6,7.2
		c0.4-3.4,0.4-5.9,1.2-8.1c0.6-1.7,1.9-3.5,3.4-4.5c3.5-2.3,6.2-1.5,8.1,2.7c3.3,7.2,7.2,14.2,11.1,21.7c-3,1.2-5.4,2.1-8.1,3.2
		C272.4,413.5,270.8,410.8,269,407.6z"/>
	<path class="st0" d="M221.6,397c0.3,0,0.7-0.1,1-0.1c12.5-0.8,14.8,1.3,15.3,13.8c0.5,12.9-1.2,14.8-13.9,16.2
		c-2.5,0.3-5,0.3-7.5,0.3c-7.8,0.1-9.8-1.7-11-9.5c0-0.2,0-0.3-0.1-0.5C203.4,401.7,206.3,398,221.6,397z M220.2,418.5
		c7.9-0.1,8.3-0.5,8.3-6c0-4.2-0.8-6.9-6.1-6.5c-8.2,0.5-8,0.3-8.2,6.8C214.1,418.1,216.6,419.2,220.2,418.5z"/>
	<path class="st0" d="M48.7,356.9c-1.3-1.6-2.7-3.3-4.5-5.6c7.4-6,14.7-11.9,22.5-18.2c3.4,3.7,6.8,7,9.7,10.8
		c7.7,10,4.2,18.2-8.5,20c-0.8,2.8-1.7,5.8-2.7,9.2c-3.6-3.3-8-5.2-6.9-11.2C58.9,358.5,53.3,355.9,48.7,356.9z M58.9,351
		c4,1.9,7.5,5.9,10.7,2c2.8-3.3-1.3-5.6-3.7-8C63.6,346.9,61.5,348.7,58.9,351z"/>
	<path class="st0" d="M94.6,359.5c-4.2,5.6-8.2,10.8-12.6,16.6c2.7,2.2,5.2,4.2,8.2,6.7c4.4-6,8.5-11.6,12.8-17.5
		c2.5,1.8,4.9,3.5,7.9,5.6c-4.6,6.5-8.7,12.8-13.6,18.7c-1.3,1.6-5.4,2.9-6.8,2.1c-6.2-3.7-12.1-7.9-17.5-12.7
		c-1.2-1.1-0.7-5.9,0.7-8c3.9-5.9,8.7-11.3,13.4-17.3C89.9,355.8,92.1,357.6,94.6,359.5z"/>
	<path class="st0" d="M311.4,399c-1.5-9.7-3.2-19.3-4.6-29c-0.4-2.8,6.8-8,9.2-6.6c8.3,4.9,16.4,10.1,25,16.1
		c-10.9,4.9-20.8,11-28,20.8C312.5,399.9,312,399.4,311.4,399z M323.7,378.9c-2.2-1.4-3.9-2.6-6.5-4.4c0.5,3.2,0.7,5.3,1.1,8
		C320.3,381.2,321.6,380.3,323.7,378.9z"/>
	<path class="st0" d="M149.4,404.1c1.7,5.4,3.3,10.6,5.3,17.3c-4.5-1.8-8.7-2.3-10.9-4.7c-2.2-2.3-2.4-6.5-3.9-11.1
		c-1.7,3.7-2.9,6.3-4.4,9.6c-2.7-1-5.4-2.1-8.3-3.2c3.6-9.4,7.1-18.3,10.7-27.8c2.9,1.2,5.6,2.3,8.7,3.6c-0.9,2.7-1.8,5.3-3.2,9.5
		c6.8-5.5,12.7-9.7,20.6-3.8C159.3,396.9,154.6,400.4,149.4,404.1z"/>
	<path class="st0" d="M287.7,411.3c-3.7-9.7-7.1-18.5-10.7-28c6.3-2.6,12.1-5.4,18.2-7.4c5.2-1.7,10.2,1.6,10.1,7.1
		c-0.1,4.4-1.7,9-3.4,13.1c-1.6,3.9-6.6,5.8-6.9,11.1C294.9,408.6,290.7,409.7,287.7,411.3z M291.2,394.1c0.8,0.1,1.5,0.2,2.3,0.3
		c0.5-2.7,1-5.5,1.5-8.2c-2.1,0.1-4.3,0.3-7,0.4C289.5,389.9,290.4,392,291.2,394.1z"/>
	<path class="st0" d="M133.7,382.9c-1.5,2.7-2.9,5-4.3,7.6c-2.8-1.6-5.2-3.1-7.7-4.3c-3.1-1.6-6.1-1.9-8.3,1.6
		c-2.3,3.5-1,6.5,1.9,8.7c2.5,1.8,5.4,3.2,8.6,5c-1.2,2.4-2.3,4.9-3.7,7.9c-7.4-4-16.5-6-17.9-15.3c-1.1-7.1,3-13.5,9.3-17
		C120.3,372,126.4,379.4,133.7,382.9z"/>
	<path class="st0" d="M200,397.8c0.1,2.6,0.2,5,0.4,7.6c-3.1,0-5.7-0.1-8.3,0c-4,0.2-6.3,2.1-6.7,6.5c-0.4,4.5,2,5.9,5.8,6.2
		c2.6,0.2,5.2,0.4,8.2,0.6c0,2.7,0,5.3,0,8.5c-7.1,0-14.6,1.9-20.2-4.7c-3.5-4.1-3.6-14.7-0.6-20C181.6,396.9,185.5,396,200,397.8z"
		/>
	<path class="st0" d="M46.3,321.1c-1.4-2.7-2.7-5.1-4.3-8.1c2.1-1.6,4.2-3.1,6.6-4.8c5,7.3,9.9,14.3,15.1,21.8c-2,1.5-3.9,3-6.1,4.7
		c-2-2.2-3.8-4.3-5.9-6.6c-5.5,3.9-10.8,7.7-16.7,11.8c-1.6-2.2-3-4.2-4.7-6.6C35.7,329.3,40.9,325.3,46.3,321.1z"/>
	<path class="st0" d="M263.7,76.5c-26.1,31.6-41.2,66.9-47.1,106.7c-5.4,0-10.5,0.2-15.6-0.1c-1.1-0.1-3-1.7-3.1-2.8
		c-3.7-38.9-20.3-72.3-42.7-103.4c-0.1-0.1,0-0.3,0-1.3C191.1,61,227,61.8,263.7,76.5z"/>
	<path class="st0" d="M260.4,339c-37.1,12.7-72.9,12.6-108.9-1.1c29.6-45.1,32-43.6,47.4-108.5c2.6,0,5.4,0,8.2,0c2.6,0,5.3,0,8.6,0
		C219.9,270.2,235.1,306.3,260.4,339z"/>
	<path class="st0" d="M117.6,240.6c-2.6,1.4-4.9,2.6-7.7,4.1c-6.8-10.2-9.8-21.9-14.1-33.1c-0.9,12.9,2.7,24.9,6.6,37.2
		c-2.9,1.8-5.9,3.6-9.4,5.7c-13.3-33.4-12.5-65.9,1.7-98.4c6.7,2.2,7,2.9,6.2,9.2c-1.1,8.6-1.4,17.1,0.5,26.7
		c2.7-9.8,5.1-18.5,7.7-27.8c3.7,2.2,6.5,3.8,9.6,5.6C109.3,193.3,108.8,216.8,117.6,240.6z"/>
	<path class="st0" d="M298.3,171.8c2.2-1.1,4-1.9,6.5-3.2c3.8,8.3,7.5,16.4,11.2,24.4c0.3,0,0.5-0.1,0.8-0.1
		c-0.7-4.4-1.2-8.9-2.2-13.2c-1-4.5-2.6-8.9-4.1-14c2.2-1.5,4.6-3.1,7.7-5.2c13,32.2,11.6,63.5-0.7,95c-5.4-1.8-7.2-4.5-6.6-10.2
		c0.9-9.2,0.2-18.5,0.2-28.2c-2.3,10.3-4.4,20.1-6.8,30.9c-3-1.7-5.4-2.7-7.4-4.2c-0.8-0.6-1.3-2.4-1-3.3
		C303,218,304.1,195.3,298.3,171.8z"/>
	<path class="st0" d="M86.8,259.1c-3.8,2.8-7.3,5.4-10.8,7.9c-18.6-30.8-19-92,2.8-124.2c0.1,0,0.3,0,0.4,0.1
		c9.6,6.8,9.4,6.7,5.3,17.7c-11.7,31.5-11.8,63,0.7,94.4C85.7,256.3,86.2,257.5,86.8,259.1z"/>
	<path class="st0" d="M345.9,140.7c1.6,3.6,3,7.1,4.6,10.5c1.4,3.1-1.1,4.3-3,5.3c-4.5,2.3-4.8,5.1-3.5,10
		c8.8,32.5,7.4,64.5-6.4,95.6c-0.9,2.1-2,4.1-3.1,6.1c-0.7-0.3-1.1-0.3-1.3-0.5c-8.3-5.5-8.2-5.4-4.7-14.6
		c10.4-27.3,12.2-55,4.1-83.2c-0.2-0.8-0.6-1.5-1-2.7c-1.2,0.4-2.2,0.7-3.2,1.2c-1.1,0.5-2,1.1-3.6,1.9c-1.4-3.1-2.8-6-3.9-9
		c-0.3-0.8,0.2-2.4,0.9-2.9C329.6,152.7,337.5,146.9,345.9,140.7z"/>
	<path class="st0" d="M123.5,237.7c-6-21.9-5.2-43.1,1.1-64.2c11,1.2,18.6,9.1,20,19.8c1.2,9.4,0.8,18.6-2.1,27.6
		C139.6,229.9,133.4,235.3,123.5,237.7z M130.1,191.5c0,9.6,0,19.1,0,28.8C135.4,214.4,136.1,198.7,130.1,191.5z"/>
	<path class="st0" d="M295.1,173.6c0.8,3.8,1.4,7.2,2.1,10.5c-2.8,1.6-6.9,2.6-7.4,4.5c-0.9,3.8,0.2,8.1,0.6,12.4c2.7,0,5,0,7.5,0
		c0,3.7,0,7.4,0,11c-8.6,1.2-8.5,1.2-10.3,11.8c-1.1,6.4,5.4,4.6,7.9,7.9c-0.9,2.8-1.9,6.1-3,9.7c-5.8-2.5-11.2-4.8-17.2-7.4
		c4.6-17.4,6.5-35,2.1-53.2C283.2,178.3,288.9,176.1,295.1,173.6z"/>
	<path class="st0" d="M252.3,226.9c0-13.1,0-25.8,0-39.5c4.4-0.7,8.7-1.8,13-1.8c6,0.1,10.6,5.7,10.9,13.9c0.2,6-0.4,12.3-1.8,18.2
		c-2,8.3-7.6,11.5-16.1,10.4C256.2,227.8,254.1,227.3,252.3,226.9z M261.8,218.8c5.3-4,7.7-12.8,5.3-19.6c-0.6-1.8-2.7-3.2-4.1-4.7
		c-0.4,0.3-0.8,0.7-1.2,1C261.8,203,261.8,210.6,261.8,218.8z"/>
	<path class="st0" d="M166.3,201.9c-0.2,3.2-0.3,5.9-0.5,9.2c-3,0.2-5.7,0.3-9.4,0.5c2,6.8,7.6,2.1,11,5c0.3,1.9,0.6,4.8,1,8
		c-6.5,1.3-12.7,2.4-19.3,3.7c-3.1-15.2-2.9-30,1.2-45.6c6.3,1.7,12.2,3.3,18.5,5c-0.5,3.4-0.9,6.3-1.4,9.7c-2.5-0.4-4.5-1-6.6-0.9
		c-1.1,0-2.3,1.1-3.4,1.8c0.9,0.9,1.7,2.1,2.8,2.5C162,201.4,163.9,201.5,166.3,201.9z"/>
	<path class="st0" d="M224,222.3c0-9.5-0.1-18.3,0.1-27.1c0-1.2,1.5-3.5,2.2-3.5c1.9,0,4.4,0.6,5.4,1.9c2.6,3.3,4.6,7.2,7.8,10.5
		c-0.2-4.4-0.4-8.7-0.7-13.7c2.4-0.4,4.9-0.9,8.2-1.5c0,12.4,0,24.1,0,36.2c-4-0.4-7.5-0.3-9.2-4.7c-1.3-3.3-3.5-6.2-6.2-9.1
		c-0.2,3.7-0.4,7.4-0.7,11.7C228.3,222.7,226.1,222.5,224,222.3z"/>
	<path class="st0" d="M181.6,217.7c-0.2,1.9-0.3,3.3-0.4,5.2c-2.7,0.4-5.3,0.7-8.4,1.2c-3.1-11.7-2.6-23.3,0-35.6
		c3.8,0.6,7.4,0.8,10.9,1.7c7.5,1.9,10.7,5.7,10.9,12.3c0.2,7.6-3,12-10.4,14.4C183.4,217.1,182.6,217.3,181.6,217.7z M180.6,206.7
		c0.4,0.4,0.8,0.8,1.2,1.2c1.2-1.8,3.1-3.5,3.3-5.4c0.1-1.3-2.1-2.8-3.3-4.2c-0.4,0.2-0.8,0.5-1.2,0.7
		C180.6,201.6,180.6,204.1,180.6,206.7z"/>
	<path class="st0" d="M219.3,214.4c0,2.7,0,4.6,0,6.8c-7.5,0-14.8,0-22.8,0c0.4-9.5,0.8-18.9,1.3-28.6c7.7,0,15,0,22.6,0
		c0,2.5,0,4.6,0,7.1c-4.7,0.3-9.3,0.5-13.8,0.8c-0.1,0.6-0.2,1.2-0.3,1.9c3.2,0.5,6.4,1,9.9,1.6c0,1.8,0,3.9,0,6.4
		c-2.6,0-5.1-0.1-7.5,0.1c-0.8,0.1-1.5,0.9-2.2,1.3c0.8,0.6,1.5,1.6,2.3,1.7C212.2,213.9,215.6,214.1,219.3,214.4z"/>
</g>
</svg>
