<?xml version="1.0" encoding="utf-8"?>
<!-- Generator: Adobe Illustrator 28.2.0, SVG Export Plug-In . SVG Version: 6.00 Build 0)  -->
<svg version="1.1" id="Calque_1" xmlns="http://www.w3.org/2000/svg" xmlns:xlink="http://www.w3.org/1999/xlink" x="0px" y="0px"
	 viewBox="0 0 340.2 373.9" style="enable-background:new 0 0 340.2 373.9;" xml:space="preserve">
<style type="text/css">
	.st0{fill-rule:evenodd;clip-rule:evenodd;fill:#FFFFFF;}
</style>
<g>
	<path class="st0" d="M195.4,54.3l-0.7,35.6L209,70.5l-2,54.2l20.7-26.5l6.6,82.7l11.1-47.7l50.8,33.2L209.2,28.6L195.4,54.3
		L195.4,54.3z M150.8,72.1l2.2-37.7l8,31.9l-4,26.3L150.8,72.1L150.8,72.1z M232.8,226.1L173,79.1l9.9-26.2l-19-13.5L156.2,0
		l-34.1,87.7l36,37.2l2.1-19.7L232.8,226.1L232.8,226.1z M67.3,198.4l11.5-34.2l27.4,60.9l-13-86.4l27.9,17.9L104,118.1l-3.8-33.4
		l-35.3,66.2L67.3,198.4L67.3,198.4z M139.8,159.6l2.2,76.2l11.6-58.9l21-11.7l-59.3-61.4L139.8,159.6L139.8,159.6z M220.8,276.1
		c2-8.5,12.2-14,20.3-14c8.4,0,19,4.9,21.1,14H220.8L220.8,276.1z M218.8,282.8l7.5,5.8h53.3c0-22.4-14.9-40.4-38.1-40.4
		c-21.7,0-37.6,17-37.6,38.5c0,9.1,4.1,21,11.7,26.6c8.2,6,15.5,9.7,26,9.7c7.7,0,15.2-2.3,21.6-6.6c3.8-2.5,11.8-10.1,12.6-15.4
		l-17.3,0C252.8,312.3,219.2,316,218.8,282.8L218.8,282.8z M37.9,302.8v-54.1l-14.7,12.2l0.3,37.5c0.1,17-14.2,10.8-18,9.1l-5.5,11
		C13.9,327.3,37.9,322.4,37.9,302.8L37.9,302.8z M328,265.1l10.6-8.7c-6.3-5.3-17.4-8.3-25.4-8.3c-13,0-26,7.2-26,21.9
		c0,25.2,37.4,15.4,37.4,32.2c0,6.1-7.9,7.1-12.2,7.1c-6,0-12.2-2.4-15.7-5.4l-10.8,9.5c8.7,7.1,19.9,9.4,27.4,9.4
		c13.1,0,27.1-7.5,27.1-22.4c0-27.1-37.8-19.5-38.1-32.2C302.2,257.7,323.2,261.2,328,265.1L328,265.1z M142.6,278.5l51.5,44.8
		l0-73.6h-14.2l0.6,42.9L129,248.5l0.1,73h14L142.6,278.5L142.6,278.5z M83.5,262.2c13.3,0,22.1,10.4,22.1,23.4
		c0,14.5-9.9,23.4-24.1,23.4c-11.9,0-20.8-11.8-20.8-22.9C60.8,272.6,69.4,262.2,83.5,262.2L83.5,262.2z M45.4,286.1
		c0,20.7,17,36.9,37.4,36.9c11,0,18.2-3.7,26.6-10.3c7.4-5.8,11.8-17.5,11.8-26.7c0-20.4-17.3-37.8-38-37.8
		c-10.2,0-20,3.8-27.3,11.1C48.8,266.4,45.4,276.1,45.4,286.1L45.4,286.1z M119.6,361.5l-5.1-14.6l-5,0l9.5,26.4l7-16.4l6.9,16.4
		l9.7-26.4l-4.8,0l-5.1,14.5l-6.4-15.3L119.6,361.5L119.6,361.5z M252.2,351.4c2.9,0,7,0.5,7,4.4c0,4.3-3.8,4.5-7,4.5V351.4
		L252.2,351.4z M259.7,363.1c1.4-0.5,4.7-3.5,4.7-7.5c0-4.7-3.9-8.7-8.6-8.7h-9v25.9h5.5v-11.5l9.5,11.5l4.5-2L259.7,363.1
		L259.7,363.1z M157.5,361.3h4c6,0,5.7,7.5,0.1,7.4h-4.1V361.3L157.5,361.3z M157.5,350.8l4.7,0c4,0.1,4,6.5-0.2,6.5h-4.5
		L157.5,350.8L157.5,350.8z M166.4,359.1c6.7-4.1,2.3-12.2-4.4-12.2c-3.1,0-7,0-9.5,0.5v24.9c3,0.5,5.9,0.5,9,0.5
		C173.1,372.8,173.1,361.3,166.4,359.1L166.4,359.1z M226,356.5l2.5,6.8l-5.1,0L226,356.5L226,356.5z M219.5,372.3l2.3-5h8.6l2.2,5
		h5.2l-11.7-26.5l-11.8,26.5L219.5,372.3L219.5,372.3z M281.9,351.2c5.6,0,10.7,2,10.7,8.6c0,7.2-5.2,8.5-10.7,8.5L281.9,351.2
		L281.9,351.2z M28.8,352.5l3.7-3.1c-2.2-1.9-6.1-2.9-8.9-2.9c-4.6,0-9.2,2.5-9.2,7.7c0,8.9,13.1,5.4,13.1,11.3
		c0,2.2-2.8,2.5-4.3,2.5c-2.1,0-4.3-0.8-5.5-1.9l-3.8,3.3c3,2.5,7,3.3,9.6,3.3c4.6,0,9.5-2.6,9.5-7.9c0-9.5-13.3-6.8-13.4-11.3
		C19.8,349.8,27.2,351.1,28.8,352.5L28.8,352.5z M322,352.5l3.7-3.1c-2.2-1.9-6.1-2.9-8.9-2.9c-4.6,0-9.2,2.5-9.2,7.7
		c0,8.9,13.1,5.4,13.1,11.3c0,2.2-2.8,2.5-4.3,2.5c-2.1,0-4.3-0.8-5.5-1.9l-3.8,3.3c3,2.5,7,3.3,9.6,3.3c4.6,0,9.5-2.6,9.5-7.9
		c0-9.5-13.3-6.8-13.4-11.3C312.9,349.8,320.3,351.1,322,352.5L322,352.5z M193.7,352.5c4.7,0,7.8,3.6,7.8,8.2
		c0,5.1-3.5,8.2-8.5,8.2c-4.2,0-7.3-4.1-7.3-8C185.7,356.2,188.7,352.5,193.7,352.5L193.7,352.5z M180.3,360.9
		c0,7.3,6,12.9,13.1,12.9c3.9,0,6.4-1.3,9.3-3.6c2.6-2,4.2-6.1,4.2-9.4c0-7.2-6.1-13.3-13.3-13.3c-3.6,0-7,1.3-9.6,3.9
		C181.5,354,180.3,357.5,180.3,360.9L180.3,360.9z M88.6,351.5c4.7,0,7.8,3.6,7.8,8.2c0,5.1-3.5,8.2-8.5,8.2c-4.2,0-7.3-4.1-7.3-8
		C80.6,355.2,83.6,351.5,88.6,351.5L88.6,351.5z M75.2,359.9c0,7.3,6,12.9,13.1,12.9c3.9,0,6.4-1.3,9.3-3.6c2.6-2,4.2-6.1,4.2-9.4
		c0-7.2-6.1-13.3-13.3-13.3c-3.6,0-7,1.3-9.6,3.9C76.4,353,75.2,356.4,75.2,359.9L75.2,359.9z M48.8,357.9L63.7,373v-25.8h-4.4
		l0,14.8L44,346.7l0,25.7h4.8L48.8,357.9L48.8,357.9z M276.8,347.5c11.1-2.7,21.1,1.2,21.1,12.4c0,11.8-9.7,14.4-21.2,12.4
		L276.8,347.5L276.8,347.5z"/>
</g>
</svg>
