<?xml version="1.0" encoding="utf-8"?>
<!-- Generator: Adobe Illustrator 28.2.0, SVG Export Plug-In . SVG Version: 6.00 Build 0)  -->
<svg version="1.1" id="Calque_1" xmlns="http://www.w3.org/2000/svg" xmlns:xlink="http://www.w3.org/1999/xlink" x="0px" y="0px"
	 viewBox="0 0 413.4 225.2" style="enable-background:new 0 0 413.4 225.2;" xml:space="preserve">
<style type="text/css">
	.st0{fill:#FFFFFF;}
</style>
<g>
	<path class="st0" d="M159.5,123.3c-1.7-0.1-3.3-0.4-4.9-0.4c-29.7,0-59.3,0-89-0.1c-3.2,0-4.6,0.9-5.7,3.9
		c-8.6,24.4-17.5,48.7-26.2,73.1c-2.6,7.1-0.5,10.1,7,10.1c5.6,0,11.3,0,18.3,0c-2,5.2-3.4,9.5-5.4,13.5c-0.6,1.1-3.2,1.6-4.9,1.6
		c-8.2,0.2-16.3,0.1-24.5,0.1c-19.2-0.2-28.8-13.8-22.3-32c8.4-23.4,16.9-46.8,25.4-70.2c1.1-3,2.5-5.9,3.1-8.9
		c1.2-5.5,4.5-6.9,9.8-6.8c12.3,0.3,24.7,0.1,37,0.1c29,0,58,0,87,0c3.5,0,7.1,0.2,10.4,1.1c12.4,3.3,19.1,14.3,15.2,26.5
		c-6.3,19.6-13.6,38.8-20.5,58.2c-3.2,9.1-6.6,18.1-9.8,27.2c-1.1,3.2-2.8,4.9-6.5,4.9c-20.7-0.1-41.3,0.1-62-0.2
		c-11.6-0.1-19.7-6.4-21.1-16c-1-6.7,1-13.1,4.9-18.4c7.9-10.9,16.7-21.1,24.6-32.1c5.5-7.7,12.3-10.8,21.7-9.7
		c5.3,0.6,10.8,0.1,17.5,0.1c-1.6,2.4-2.5,3.9-3.5,5.3c-9.8,13-19.7,26-29.5,39c-1.3,1.7-2.8,3.5-3.5,5.4c-0.9,2.6-2.3,6.2-1.3,8.1
		c1.1,1.9,4.9,2.8,7.6,3c5.3,0.4,10.7,0.5,16-0.1c2.1-0.2,5.2-2.1,5.9-4c9.9-26.7,19.5-53.6,29.1-80.5
		C159.7,125,159.6,124.6,159.5,123.3z"/>
	<path class="st0" d="M305.8,150.4c-2.3,3-4.6,5.9-6.8,8.9c-9.6,13-19.3,25.8-28.7,39c-1.6,2.3-2.7,6.5-1.6,8.5
		c1.1,2,5.2,2.8,8.1,3.1c5.1,0.5,10.4,0.5,15.5,0c2-0.2,5-1.9,5.6-3.6c9.9-26.6,19.4-53.3,29.1-80c0.3-0.7,0.3-1.5,0.5-3
		c-1.9-0.1-3.5-0.3-5.1-0.3c-20.5,0-41-0.1-61.5,0.1c-2.4,0-5.2,1.1-7,2.6c-9.4,7.7-18.4,15.9-27.8,23.5c-4.5,3.6-5.5,7.6-5,13
		c1.8,18.9,3.2,37.8,5,56.7c0.5,4.9-1.1,6.5-6,6.3c-8.7-0.3-17.3-0.2-26-0.1c-2.8,0-4.1-0.6-4.3-3.8c-1.4-17.7-3.1-35.5-4.4-53.2
		c-0.1-2.1,1.3-4.9,3-6.4c20.1-17.5,40.3-34.9,60.6-52.1c1.6-1.4,4.2-2.2,6.3-2.2c26.3-0.1,52.7-0.2,79,0c14.2,0.1,22.8,7,24.2,19.4
		c0.4,4-0.5,8.4-1.8,12.2c-9.5,26.9-19.3,53.7-28.9,80.6c-1.4,4-3.5,5.7-7.9,5.7c-19.2-0.2-38.3-0.1-57.5-0.1c-1,0-2,0-3,0
		c-18.1-0.6-26.9-14.5-18.4-30.6c4.4-8.3,10.5-15.7,16.2-23.3c4.8-6.3,10-12.5,15.6-18.2c2.1-2.1,5.6-3.6,8.6-3.8
		c7.9-0.5,15.9-0.2,23.9-0.2C305.2,149.4,305.5,149.9,305.8,150.4z"/>
	<path class="st0" d="M375,122.9c1.7-4.7,2.8-8.9,4.9-12.6c0.9-1.6,3.7-2.7,5.7-2.8c5.7-0.4,11.4-0.1,17.2-0.9
		c-116.5-36.8-235.4-37.2-355.2-23C93.7,71.1,141,66.9,188.7,65.9c47.6-0.9,95.1,1.7,142.9,6.3c-3.6-3-7.3-6-10.9-9
		c-10.8-8.9-21.6-17.7-32.5-26.5c-1.2-1-3.5-1.8-4.7-1.3c-12.1,4.7-24.8,5.1-37.4,4.2c-39-2.7-76.6-12.3-113.9-23.5
		c-0.6-0.2-1.1-0.4-1.5-1.3c7.4,1.5,14.9,3,22.3,4.5c25.2,4.9,50.5,8.5,76.3,7.6c12.1-0.4,24.2-2,35.3-7.6c8-4,13.6-10,15.8-19.3
		c1.1,0.7,2,1.2,2.8,1.8c42.7,34.8,85.4,69.7,128.1,104.5c2.4,1.9,2.6,3.6,1.6,6.4c-3.7,10.2-3.6,10.2-14.2,10.2
		C391,122.9,383.4,122.9,375,122.9z"/>
	<path class="st0" d="M407.6,126.9c-4.9,13.6-9.6,26.7-14.4,39.8c-4.1,11.2-8.2,22.5-12.2,33.7c-2.1,5.8-1.1,7.7,4.8,9.6
		c0.9,0.3,2.3,1.1,2.4,1.8c1.2,5.6-5.3,13.3-11.1,13.3c-2.5,0-5,0-7.5-0.1c-15.9-0.6-25.6-13.3-20.9-28.4c5-16,11.1-31.6,16.8-47.4
		c2.3-6.4,4.5-12.8,7-19.2c0.5-1.3,2-3,3.1-3C386.1,126.8,396.6,126.9,407.6,126.9z"/>
</g>
</svg>
