<?xml version="1.0" encoding="utf-8"?>
<!-- Generator: Adobe Illustrator 28.2.0, SVG Export Plug-In . SVG Version: 6.00 Build 0)  -->
<svg version="1.1" id="Calque_1" xmlns="http://www.w3.org/2000/svg" xmlns:xlink="http://www.w3.org/1999/xlink" x="0px" y="0px"
	 viewBox="0 0 392.5 434.7" style="enable-background:new 0 0 392.5 434.7;" xml:space="preserve">
<style type="text/css">
	.st0{fill:#FFFFFF;}
</style>
<g>
	<g>
		<path class="st0" d="M311,166c-7.9,0-16.2,4.3-24.1,3.6c-5.3-0.3-14.9-7.6-14.2-9.9c2.6-12.6,6-25.5,12.9-35.7
			c9.6-13.9,23.1-24.5,33.7-37.4c2.7-3.3,1.7-9.6,2.3-14.5c-5,0.3-10.2-1-14.9,0.7c-7,2.3-13.2,6.6-23.5,12.2
			c1-10.2,0.3-16.5,2.6-22.2c4.3-10.6,10.9-20.5,14.9-31.1c1.7-5,0-10.9,0-16.5c-5,1-11.6,0.3-14.9,3.3
			c-16.2,13.9-31.7,28.4-36,51.3c-1,6.6-5,13.2-8.9,18.8c-2,3-7.9,5.3-10.6,4.3c-3-1-6-6.9-5.6-10.2c1-8.9,2.6-18.2,5.3-27.1
			c3.6-11.9,9.3-23.5,12.6-35.7c1.3-4.3-1.3-9.9-2.3-14.9c-5,2-9.9,3.3-14.2,5.6c-2.7,1.7-5,4.6-6.6,7.3
			c-11.2,19.8-22.2,40-33.4,59.9c-3,5.6-5.9,11.6-9.9,16.9c-1.6,2.3-6.6,4.6-8.3,3.6c-2.6-1.7-6.3-6.3-5.6-8.6
			c2.3-10.2,5-21.2,9.9-30.4C182.3,40.3,185,20.8,181.7,0h-6.6c-17.9,23.5-36,46.6-52.6,70.8c-6.3,9.3-10.9,20.5-12.6,31.4
			c-2.6,14.5-8.6,24.5-22.1,30.1c-7.6,3.3-14.9,7.9-20.8,13.2c-3.3,2.7-3.3,8.6-5,12.9c4.3,1.3,8.6,2.6,12.9,4c1,0.3,2.3,0,3.3-0.3
			c24.5-4.3,31.7,3.6,22.8,26.8c-3.3,8.9-10.3,16.9-16.5,24.1c-11.2,13.2-23.5,25.5-35,38.4v9.9c6.9,9.9,14.5,7.3,20.8-0.3
			c7-5.6,13.9-10.9,21.2-16.5c1.6,1,3,1.7,4.6,2.3v16.9c0,4.3-1.3,10.6,1,12.6c10.2,8.9,10.2,18.8,6.6,30.8c-1,3,2.6,7.3,4.3,10.9
			c3.6-1.7,9.6-2.3,10.9-5c5-10.9,9.3-22.5,11.9-34.1c5.3-22.8,11.6-31.7,31.4-38.7c-1,5.6-1.6,9.9-2.3,14.2
			c-3.3,22.5-0.7,46.3-11.9,67.5c-1.3,2.6,1.3,7.3,2.3,10.9h9.9c8.6-11.9,15.2-26.1,26.1-35.1c12.6-10.2,16.5-21.8,17.9-36.7
			c1.3-10.6,5-21.2,9.9-30.8c2-3.6,9.6-4.6,14.9-6.6c0.3,5,1.3,9.9,1,14.5c-0.3,6.9-1.7,13.9-2.3,20.8c-0.7,6.3-0.7,12.9-2.3,18.9
			c-2.7,9.3-6.6,17.9-10.2,26.8c2,1.6,4.3,3,6.3,4.3c6.3-5.3,13.2-9.9,18.9-15.9c5.9-6.6,9.9-14.9,16.5-20.5
			c9.9-8.6,14.2-18.5,13.6-31.8c-1-20.5,8.9-34.1,27.8-42c7.6-3.3,15.5-6.3,21.8-11.6c4.3-3.6,5.6-10.6,8.6-16.2
			C322.6,169.3,316.6,166,311,166z M178.4,150.1c-0.7,11.9-2,24.2-4.3,35.7c-1,4.6-4.6,9.6-8.6,12.2c-6.6,4.3-14.9,6.6-22.2,9.6
			c-6.6-14.9,6-61.5,18.8-67.8c3.6-2,9.9-4,11.9-2.3C177.1,140.2,178.7,145.8,178.4,150.1z M244.2,146.8c-1,13.6-4,27.1-6,41.3
			c-7.3,1.3-15.2,3-25.1,5c3.6-17.8,7-35.4,11.6-52.2c1-3.6,8.3-5.6,12.6-8.6C239.6,137.2,244.5,142.2,244.2,146.8z"/>
	</g>
	<g>
		<path class="st0" d="M388.7,428.6c-5.8-5.9-8-13.6-10.7-21.1c-0.9-2.4-4.2-6.1-5.9-5.8c-8.1,1.3-11.2-4.5-15.2-9.2
			c-2-2.4-1.6-4.4,1.3-5.4c4.2-1.4,8.5-2.5,12.9-3.5c6.5-1.4,11.8-4.1,14.7-10.6c1.8-4.1,4.4-7.7,6.7-11.5c0-1,0-2-0.3-2.8
			c-3.1-4.4-7.7-5.4-12.7-6.7c-10.7-2.8-20.4-1.6-30.8,1.7c-6.7,2.1-13.3,3.2-18.3,8.7c-1.1,1.2-3.3,1.5-4.9,2.3
			c-1.7,0.9-4,1.5-5.1,2.9c-3.4,4.2-7.9,3.4-12.3,3.7c-2.8,0.2-5.7,0.6-8.5,1.3c-2.9,0.8-5.7,2-10,3.5c0.9-3.1,1.1-4.7,1.8-6
			c2.8-5.5,7.7-8.2,13.5-9.3c3.7-0.7,7.6-0.8,11.4-1c4.7-0.2,8.9-0.9,11.9-5.1c0.8-1.2,2.8-1.8,4.3-2.2c2.3-0.6,4.8-0.4,6.9-1.2
			c1.3-0.5,2.7-2,3.1-3.3c0.2-0.7-1.6-2.8-2.7-2.9c-4.8-0.6-9.5-0.7-14.3-1c-4-0.2-8,0.1-11.8-0.8c-4.5-1.1-8.3-0.6-12.5,1.2
			c-5.4,2.3-11.2,3.8-17,5.1c-3.8,0.9-6.8,2.1-8.4,6c-0.6,1.3-2.3,2.8-3.5,2.9c-5.3,0.3-10.7,0.1-17.6,0.1c2.8-3.9,5.2-6.9,7.2-10.1
			c0.9-1.5,1.2-3.5,1.8-5.3c-2-0.1-4.3-0.9-6-0.2c-4.2,1.7-7.9,4.5-13,4.1c-1.4-0.1-3.1,3.1-4.8,4.6c-2.4,2.1-4.9,4.2-7.6,6
			c-0.7,0.5-2.6,0.4-3.1-0.2c-3.3-3.9-7.5-2.7-11.6-2.5c-2,0.1-5.3,0.2-6-0.9c-4.3-6.8-9.4-4-14.9-2.2c-4.6,1.5-9.8,3.1-14.4,2.5
			c-6.4-0.9-11.8,0.3-17.3,3c-1.2,0.6-2.7,0.6-4.9,1.1c5.8-8.7,4-13.8-5.3-15.1c-5.1-0.7-10.7,0.8-16,1.8c-5,0.9-9.9,2.4-14.8,3.7
			c-5,1.3-10.2,1.9-13.5,6.7c-1.1,1.5-3.2,2.2-4.7,3.5c-1.8,1.7-3.5,3.5-5.2,5.3c2.5,0.4,4.9,0.9,7.4,1.3c0.2,0,0.3-0.1,0.5-0.1
			c4.5-0.6,6.3,1.1,4.2,5.1c-2.9,5.4-6.9,10.2-10.4,15.4c-7.3-6.1-10.6-16.8-8.1-24.8c0.6-2,1.4-3.8,2-5.7c2.1-6.6-0.6-9.8-7.3-8.4
			c-2.1,0.5-4.1,1.3-6.2,1.8c-1.6,0.4-3.5,1.1-4.8,0.5c-5.9-2.5-9.4,0.9-13.1,4.5c-3.7,3.8-7.5,7.5-11.7,10.7
			c-4.8,3.7-5.9,6.3-4.8,12.4c0.5,2.6-0.1,5.4-0.6,8.1c-0.4,2.1-1.9,4-2.1,6.1c-0.3,4.2-3.2,6.6-6.4,6.5c-5.5-0.1-8.9,2.4-12.3,6.1
			c-1,1.1-3.6,1.9-4.8,1.4c-1.3-0.6-2.7-2.8-2.7-4.3c0.1-3.1,0.7-6.3,1.8-9.1c1.2-2.9,3.5-5.3,4.9-8.1c1-2,2.3-4.8,1.6-6.4
			c-1.7-3.7,0-5.7,2.2-7.8c4.3-4.2,8.8-8.2,12.8-12.6c1.3-1.4,2.5-4.4,1.8-5.6c-2.1-3.6-0.1-5.5,1.8-7.9c1-1.2,1.2-3.1,1.8-4.7
			c-1.9,0.1-3.8-0.1-5.6,0.2c-1,0.2-2,1-2.9,1.8c-6.1,5.6-14.9,8.2-18.6,16.7c-0.7,1.8-2.9,3.2-4.8,4.2c-4.7,2.4-7.9,5.8-9,11.2
			c-0.4,1.5-1.8,3.3-3.2,4.2c-3.6,2.3-3.2,5-0.9,7.5c4.1,4.4,3.4,8.6,0.2,13c-1.2,1.7-2.6,3.6-3.1,5.6c-0.4,1.6-0.3,4.3,0.7,5.3
			c3.4,3.2,3.3,6.6,1.6,10.4c-0.9,2-2,4-2.1,6.1c-0.1,2.4,0,6.1,1.4,6.9c1.7,0.9,5.2,0.1,7.1-1.2c3.1-2.1,5.6-5.2,8.4-7.8
			c3.1-2.8,6.4-4.1,10.9-2.9c2.3,0.6,5.3-0.6,7.7-1.7c1.8-0.9,3.2-2.9,4.9-4.2c9-7,10.6-6.6,15.4,3.5c0.4,0.8,0.6,1.8,1.2,2.2
			c1.3,0.8,3.1,2.2,4.1,1.8c5.2-2.2,7.1,1,9.4,4.6c4.3,6.4,11.9,6.1,15.8-0.6c1-1.7,1.6-3.7,2.4-5.5c2.4-5.6,6.4-9.8,13.2-13.5
			c-1,3.6-1.5,6.1-2.3,8.5c-1.4,3.9-3.4,7.6-4.3,11.6c-0.5,2.5,0.5,5.3,0.9,7.9c2.8-0.5,5.6-0.8,8.3-1.6c4.2-1.2,8.4-3.9,12.5-3.7
			c7.1,0.3,12-2.3,16.3-7.5c1.8-2.1,4-4.2,6.5-5.2c7.2-2.8,11.3-9,16.2-14.3c4.1-4.4,2.6-7.9-3-10.2c-1.4-0.5-2.5-1.7-3.6-2.8
			c-1.9-1.7-3.6-3.6-5.3-5.5c-1-1-2.5-2.5-2.3-3.5c0.9-4.8,6.7-7,10.9-5.1c4.8,2.2,6.9,5.7,7.5,10.8c1,7.9,4.2,10.6,12.1,11
			c1.3,0,2.6,0.4,3.9,0.6c3.8,0.5,7.7,1.2,11.5,1.3s7.3,0,9.7,4.5c-2,0.9-3.8,1.5-5.5,2.4c-1.7,0.8-4.2,1.6-4.8,3
			c-1.7,4-4.4,3.1-7.4,2.6c-3.4-0.6-6.9-1.8-10.3-1.6c-5.8,0.3-10.9,2.7-15,8.1c1.9,0.6,2.9,1.2,3.7,1.1c7.9-1.3,13.1,2.6,18.2,8
			c4.2,4.3,8.5,3.7,13.4,0.1c3.8-2.8,8.1-5.2,12.5-6.7c4.6-1.5,8-3.7,10.6-7.7c1.3-2.1,3.9-3.3,5.8-5.1c1.9-1.8,3.7-3.8,5.5-5.7
			c-2-1.8-3.8-3.9-6-5.4c-1.4-0.9-3.5-0.9-5.2-1.6c-2.4-1-5.9-1.5-6.9-3.4c-3.9-7.3-10-5.8-16.1-5.4c-3.3,0.2-6.7,0.2-9.8-0.7
			c-1.3-0.4-3-3.3-2.8-4.8c1.1-8.1,15.3-13.5,21.9-8.8c1.8,1.3,4.6,1.8,6.9,1.8c2.4,0,4.7-1.2,7.1-1.8c0.9,5.6,3.2,6.4,8.1,3.6
			c3.4-1.9,7-3.7,10.7-4.7c3.5-1,4.5,1.5,3.1,4.4c-1.1,2.6-3.4,4.7-4.2,7.3c-1,2.9-2.4,7.4-1,9.1c5.3,6.4,3.9,12.4,1.6,19.2
			c-1.6,5-2.4,10.4-2.9,15.6c-0.1,1.3,2.1,2.9,3.2,4.3c1.2-1.2,2.7-2.3,3.4-3.7c2.7-5.3,4.6-11.1,7.7-16.1
			c4.5-7.3,7.7-14.2,5.4-23.4c-2.4-9.5,3.7-14.7,13.3-13.6c2.7,0.3,5.7,0,8.1-1.1c1.9-1,3.2-3.5,4.9-5.5c2.2,4.4-0.1,11.2-3.9,13.3
			c-7.1,4-9.3,12-14.7,17.4c-0.4,0.4-0.1,1.5-0.3,3.6c6.3-2.5,11.9-4.7,18.5-7.3c-1,2.2-1.3,3.1-1.8,4c-2.1,3.8-3.6,7.3-0.5,11.6
			c0.8,1.2-0.4,4.3-1.4,6.1c-1.9,3.3-4.5,6.1-6.5,9.4c-0.6,1.1-0.6,3.5,0.1,4c1.1,0.8,3,1,4.5,0.7c1.4-0.3,2.7-1.3,3.9-2.2
			c4-2.8,7.7-5.9,11.8-8.4c1.8-1.1,5.4-2.2,6.3-1.4c4,4,6.9,1.5,9-1.5c4.1-5.9,8.7-10.8,15.7-13.3c1.3-0.4,1.9-2.7,2.8-4.1
			c-1.7-0.8-3.8-2.6-5-2.1c-6.9,2.5-15.1,1.4-21,7c-0.9,0.9-2.4,1.4-3.6,1.5c-0.8,0.1-2.2-0.8-2.5-1.6c-1.8-4.7,3.8-13.2,8.6-13
			c7,0.3,12.8-3.7,17-7.7c4.9-4.7,10-7.3,16.2-8.6c2.5-0.5,5.3,0.2,7.9,0.4c-1.6,2.1-3,4.6-4.9,6.4c-2.7,2.6-4.1,5.1-2,8.7
			c2.6,4.2,1.2,8.3-2.2,10.6c-7.1,4.8-10.1,12.1-13.7,19.1c-2.2,4.3-3.8,8.8,0,14.9c2.5-3.7,4.7-6.4,6.4-9.5c2-3.7,4.4-6.2,8.5-7.8
			c3.1-1.2,5.7-3.8,8.1-6.2c1.9-1.9,3-4.5,4.8-6.4c4.2-4.5,7.9-3.8,11.1,1.5c1.2,2.1,3.2,4.7,5.3,5.3c5.8,1.7,9.6,5.4,13.6,9.6
			s9.1,7.5,13.9,11c0.9,0.7,2.6,0.3,4,0.4C388.9,431.3,389.4,429.3,388.7,428.6z M76.4,414.9c-0.8-1.6-1.7-4.1-3.1-6.3
			c-1.6-2.5-3.9-4.6-5.4-7.2c-1-1.7-2-4.1-1.6-5.8c1-4.1,3.1-8,0.2-12.3c-0.6-0.9,0.3-3.2,1.1-4.5c2.3-3.5,5.1-6.1,9-7.4
			c0.3-0.1,0.6-0.2,0.9-0.3c0.1,0,0.2-0.1,0.4-0.1c0.3-0.1,0.6-0.2,0.9-0.2c0.4-0.1,0.8-0.2,1.2-0.2c0.8-0.1,1.7-0.2,2.6-0.2
			c-0.2,0.7-0.3,1.3-0.5,1.9c-0.1,0.2-0.1,0.4-0.2,0.6v0c-0.2,0.9-0.4,1.6-0.8,2.2c-0.2,0.3-0.3,0.7-0.4,1c-0.1,0.3-0.2,0.7-0.3,1
			c-0.3,1.5-0.2,2.9,0.1,4.1c0,0.1,0,0.1,0.1,0.2c0.2,0.5,0.4,1,0.7,1.5c0.1,0.2,0.2,0.4,0.3,0.5c0.1,0.2,0.2,0.4,0.3,0.5
			c0.6,0.9,1.3,1.7,2.2,2.5c0.2,0.2,0.3,0.3,0.5,0.5c0.2,0.2,0.3,0.3,0.5,0.5c0.2,0.2,0.4,0.4,0.6,0.6c0.1,0.1,0.2,0.2,0.4,0.3
			c0.1,0.1,0.3,0.3,0.4,0.4c0.3,0.3,0.5,0.5,0.7,0.8c0.1,0.1,0.2,0.2,0.3,0.3c0.1,0.1,0.2,0.2,0.2,0.3c0.1,0.1,0.2,0.3,0.3,0.4
			c0.1,0.1,0.2,0.2,0.2,0.3c0.1,0.2,0.2,0.3,0.3,0.5c0.1,0.2,0.2,0.3,0.3,0.5c0.1,0.3,0.2,0.6,0.3,0.9c0,0.2,0.1,0.4,0.1,0.5
			c0,0.2,0,0.4,0,0.5c0,1.7-1,3.5-2.8,5.9C83.2,404.6,80,409.6,76.4,414.9C76.4,414.9,76.4,414.9,76.4,414.9z M126.3,412.5
			c-1.1,0.7-2.2,1.4-3.4,2c0,0-0.1,0-0.1,0.1c-2.4,1.3-4.9,2.4-7.3,3.7c-0.2,0.1-0.4,0.2-0.7,0.3c-0.2,0.1-0.4,0.1-0.7,0.2
			c-0.1,0-0.3,0.1-0.4,0.1c-0.2,0-0.3,0.1-0.5,0.2c-0.3,0.1-0.7,0.2-1.2,0.4c0.5-1.4,0.9-2.7,1.4-3.9c0.9-2.6,1.7-4.9,2.5-7
			c1.5-3.4,3.2-6.2,3.3-10.5c0.2-5.2,6.4-5.3,10.7-6.2c1.8-0.4,3.7-0.7,5.4-0.3c0.2,0,0.4,0.1,0.6,0.1c0.1,0,0.3,0.1,0.5,0.2
			c1.1,0.5,2.1,1.3,2.9,2.6c0.3,0.5,0.5,1.5,0.2,1.9c-3.2,4.7-5.9,10-10,13.8c-0.7,0.7-1.4,1.3-2.2,1.8
			C126.8,412.1,126.5,412.3,126.3,412.5z M140.6,363.8c-0.1,0.1-0.1,0.2-0.2,0.4c0,0.1-0.1,0.2-0.2,0.3c-0.1,0.2-0.3,0.4-0.5,0.6
			c-2,2.2-4,4.5-6.1,6.7c-3.4,3.7-6.9,7.3-10.3,11c-0.6-0.4-1.2-0.8-1.8-1.2c1.4-4.9,2.1-10.2,4.3-14.7c0.2-0.3,0.3-0.6,0.5-0.9
			c0.2-0.3,0.4-0.6,0.5-0.9c0.1-0.1,0.2-0.3,0.3-0.4c0.1-0.1,0.1-0.2,0.2-0.3c0.1-0.1,0.2-0.2,0.3-0.3c0.1-0.1,0.2-0.2,0.3-0.3
			c0.2-0.1,0.3-0.3,0.5-0.4c0.1-0.1,0.2-0.1,0.3-0.2c0.1-0.1,0.2-0.1,0.3-0.2c2.6-1.7,6.4-2.6,9.4-2.9c0.5,0,0.8,0,1.1,0.1
			c0.1,0,0.2,0.1,0.3,0.1c0.1,0,0.2,0.1,0.2,0.1c0,0,0,0,0,0c0.1,0,0.1,0.1,0.2,0.2c0.1,0.1,0.2,0.2,0.2,0.3c0,0,0,0,0,0
			c0.1,0.1,0.1,0.2,0.1,0.3c0,0,0,0.1,0,0.1c0,0.1,0.1,0.2,0.1,0.4c0,0.1,0,0.3,0,0.4c0,0.2,0,0.4,0,0.5c0,0.2-0.1,0.3-0.1,0.5
			c0,0.2-0.1,0.3-0.2,0.5c0,0,0,0.1,0,0.1C140.6,363.7,140.6,363.7,140.6,363.8z M348.5,380.2c-1.3,0.5-2.6,1.1-4,1.7
			c0.3-1.7,0.6-3.2,1.1-4.7c0-0.1,0.1-0.2,0.1-0.2c0-0.2,0.1-0.3,0.2-0.5c0.4-1.2,1.4-2.2,2-3.4c4-7.4,9.9-10.3,18.5-8.9
			c2.7,0.5,4,1.4,3.8,2.9c0,0.1,0,0.2,0,0.2c-0.2,0.7-0.6,1.5-1.4,2.4c-1.2,1.5-2.9,2.8-4.6,3.6
			C359.2,375.7,354.1,377.8,348.5,380.2z"/>
		<path class="st0" d="M81.2,375.1c0.3-0.6,0.5-1.3,0.8-2.2C81.8,373.8,81.6,374.5,81.2,375.1c-2.2,5.6,0.5,9.1,4,12.4
			C81.6,384.2,78.9,380.5,81.2,375.1z"/>
		<path class="st0" d="M86.8,400c-3.5,4.7-6.7,9.7-10.3,15c0,0,0-0.1-0.1-0.1C80,409.6,83.2,404.6,86.8,400
			c3.7-5.1,3.8-7.3-0.5-11.6C90.7,392.6,90.6,394.9,86.8,400z"/>
		<path class="st0" d="M113.1,419c0.4-0.1,0.7-0.2,1-0.3C113.8,418.8,113.5,418.9,113.1,419z"/>
		<path class="st0" d="M115.4,418.2c2.4-1.3,4.9-2.4,7.3-3.7c-2.4,1.2-4.9,2.4-7.2,3.7c-0.2,0.1-0.5,0.2-0.8,0.3
			C115,418.4,115.2,418.3,115.4,418.2z"/>
		<path class="st0" d="M139.4,396.3c-3.2,4.7-5.9,10-10,13.8c-0.7,0.7-1.5,1.3-2.3,1.8c0.8-0.6,1.5-1.2,2.2-1.8
			C133.4,406.3,136.1,401,139.4,396.3c0.2-0.4,0-1.4-0.3-1.9c-0.8-1.3-1.8-2.2-2.9-2.6c1.1,0.4,2.2,1.2,3,2.6
			C139.5,394.9,139.7,395.9,139.4,396.3z"/>
		<path class="st0" d="M370.2,367.1c0.2-1.5-1.1-2.5-3.8-2.9c-8.6-1.4-14.5,1.5-18.5,8.9c-0.6,1.2-1.6,2.2-2,3.4
			c-0.1,0.2-0.1,0.3-0.2,0.5c0-0.2,0.1-0.4,0.2-0.6c0.4-1.2,1.4-2.2,2-3.4c3.9-7.4,9.9-10.3,18.5-8.9
			C369.2,364.6,370.5,365.6,370.2,367.1z"/>
		<path class="st0" d="M129.2,362.9c2.6-1.7,6.4-2.6,9.4-2.9C135.6,360.3,131.8,361.2,129.2,362.9z"/>
		<path class="st0" d="M140.3,364.4c0.8-1.4,1.1-3.3,0-4.2C141.4,361,141.1,363.1,140.3,364.4z"/>
	</g>
</g>
</svg>
