<?xml version="1.0" encoding="utf-8"?>
<!-- Generator: Adobe Illustrator 28.2.0, SVG Export Plug-In . SVG Version: 6.00 Build 0)  -->
<svg version="1.1" id="layer" xmlns="http://www.w3.org/2000/svg" xmlns:xlink="http://www.w3.org/1999/xlink" x="0px" y="0px"
	 viewBox="0 0 385.9 504.7" style="enable-background:new 0 0 385.9 504.7;" xml:space="preserve">
<style type="text/css">
	.st0{fill:#FFFFFF;}
</style>
<path class="st0" d="M293.5,85v219L151.6,163v141h-60V85.5l60,0.2l78,78.4V85L293.5,85L293.5,85z"/>
<polygon class="st0" points="0,0 0,391.5 246.3,391.5 199.2,344.3 47.1,344.3 47.1,47.2 338.8,47.2 338.8,372.9 310.1,344.3 
	243,344.3 290.5,391.5 290.6,391.5 385.9,486.2 385.9,0 "/>
<path class="st0" d="M251.9,455.4c0,11.4,9.2,20.6,20.6,20.6s20.6-9.2,20.6-20.6c0-11.4-9.2-20.6-20.6-20.6S251.9,444,251.9,455.4
	L251.9,455.4z M120.8,435.3h-16.3v62.1H81.4v-84l23.1,0.1h70.3l29.2,0.1c13.8-0.1,25.6,10,27.7,23.6c10.1-22.4,36.5-32.4,59-22.3
	c22.4,10.1,32.4,36.5,22.3,59c-10.1,22.4-36.5,32.4-59,22.3c-15.5-7-25.6-22.2-26.2-39.2c-2.3,3.5-5.3,6.5-8.8,8.8l-2.2,1.4
	l30.7,30.5h-27l-36.6-36.9c17.2-6.4,22.5-10.5,22.5-16.3c0.1-5-4-9-8.9-9.1c-0.1,0-0.1,0-0.2,0h-13.7l0.1,62h-23.2v-62.1h-16.8v62.1
	h-23L120.8,435.3L120.8,435.3z M77.4,413.4v84L23,443.3v54.1H0v-83.8l23,0.1l29.9,30v-30.3H77.4L77.4,413.4z"/>
</svg>
