<?xml version="1.0" encoding="utf-8"?>
<!-- Generator: Adobe Illustrator 28.2.0, SVG Export Plug-In . SVG Version: 6.00 Build 0)  -->
<svg version="1.1" id="Calque_1" xmlns="http://www.w3.org/2000/svg" xmlns:xlink="http://www.w3.org/1999/xlink" x="0px" y="0px"
	 viewBox="0 0 920 322.2" style="enable-background:new 0 0 920 322.2;" xml:space="preserve">
<style type="text/css">
	.st0{fill:#FFFFFF;}
</style>
<g>
	<path class="st0" d="M540,0c1.8,0.2,3.6,0.5,5.4,0.5c28.3,0.9,56.6,1,84.9,2.7C658.6,5,687,8.1,714.2,17c3.8,1.2,7.5,2.8,11,4.7
		c8.6,4.6,9.6,11.3,1.4,16.4c-9.7,6-20,11.2-30.6,15.2c-22.1,8.4-45.1,13.7-68.5,17.4c-1.3,0.2-2.6,0.2-4.8,0.3
		c6.1-4.1,11.7-7.5,16.7-11.6c3.5-2.9,6.8-6.5,9.2-10.4c4.4-7.2,2.5-14.1-4.6-19c-9.2-6.4-19.9-9-30.8-11
		c-32.6-5.8-65.6-6.6-98.5-4.1c-25.4,1.9-50.8,3.9-75.8,8.3c-28.6,5-56.8,12.3-84.9,19.4c-22.2,5.6-44.1,12.8-64.6,23.3
		c-6.4,3.3-12.7,7.4-18.3,12c-9.7,7.9-9.8,17.7-1,26.7c8.6,8.7,19.2,14.3,30.2,19c29,12.5,59.5,19.8,90.5,25.3
		c21.1,3.8,42.2,7.4,63.4,10.4c18.6,2.7,37.3,4.8,56,6.5c24.5,2.3,49.1,3.9,73.6,5.8c8.9,0.7,17.9,1,26.9,0.7
		c-21.5-3.1-43-6.1-64.5-9.4c-43-6.5-86.4-11.5-127.9-25.8c-18.4-6.4-36.6-13.3-52.5-24.8c-4.4-3.2-8.5-7-12-11.2
		c-7.9-9.3-7.9-19.6-1.2-29.9c8-12.3,19.9-19.4,32.9-25c20.3-8.7,41.7-13.8,63.4-16.8c22.2-3,44.6-5.1,66.9-7.5
		c0.1,0.5,0.2,1,0.4,1.5c-5.3,3.1-10.6,6.2-15.8,9.3c-8.9,5.4-16.9,12-22.1,21.2c-10.5,18.5-6.4,38.1,10.2,53.6
		c16.6,15.4,36.9,24.1,57.4,32.4c38.9,15.9,79.5,26,120.7,33.9c15.8,3,31.8,5.4,47.6,8.1c0.4,0.1,0.9,0.3,2.4,1
		c-21.4-0.5-41.7-0.8-61.9-1.6c-25.8-0.9-51.6-1.9-77.3-3.4c-32.4-1.9-64.8-4.2-97.1-6.9c-24.4-2-48.8-4-73-7.3
		c-31.1-4.3-62-9.6-92.9-15.4c-24.5-4.7-48.6-11.4-70.7-23.4c-6.6-3.6-13-8.3-18.2-13.7c-8.2-8.4-8.1-18.7-1.2-28.1
		c8.2-11.2,19.7-18.4,31.6-24.7c27.3-14.6,56.6-24,86.3-32.1c35.4-9.6,71.4-16.2,107.8-19.9c28.1-2.9,56.4-4,84.6-5.9
		c1.5-0.1,2.9-0.4,4.4-0.5C539.3,0,539.7,0,540,0z"/>
	<path class="st0" d="M0,288c3.7-12.9,7.1-25.9,11.1-38.8c5.7-18.8,19.1-30.2,37.8-33.8c16.1-3.1,32.6-4.4,49-5.1
		c18.3-0.8,36.6-0.5,54.6,3.6c3.2,0.7,6.4,1.7,9.5,3c11.7,4.8,18.1,15.2,15.2,27.6c-3.5,15-7.2,30.1-12.8,44.4
		c-7.1,18.3-22.8,26.6-41.3,29.8c-25.4,4.4-51.1,3.7-76.7,2.4c-7.8-0.4-15.5-1.7-23.2-3.2C11.4,315.7,2.9,309.3,0,297
		C0,294,0,291,0,288z M85.3,299.6c0-0.2,0-0.3,0-0.5c7.3-0.4,14.6-0.7,21.9-1.2c13.4-0.9,23.2-6.3,26.6-20.4
		c2.2-9.2,5.1-18.2,7.5-27.4c2.2-8.8,0-12.7-9-14.1c-23.3-3.5-46.7-3.4-70.1,0.3c-9,1.4-14.5,7.1-17,15.6
		c-2.9,9.7-5.7,19.4-8.3,29.2c-2.8,10.8-0.4,14.7,10.6,15.9C60,298.4,72.7,298.8,85.3,299.6z"/>
	<path class="st0" d="M920,298c-2,6.3-3.7,12.6-6,18.8c-0.5,1.4-2.5,3.1-3.9,3.1c-30.9,0.5-61.8,1.1-92.8,0.9
		c-10.2-0.1-20.5-2-29.5-8c-10.3-6.9-12.6-17-9.6-28.1c6.7-24.8,14.2-49.4,21.4-74.3c11.5,0,22.9,0,35,0c-2.9,9.9-5.7,19.5-8.3,29
		c-4.3,15.2-8.6,30.3-12.6,45.6c-1.6,5.9,0.4,9.6,6.4,10.9c7.1,1.5,14.4,2.8,21.7,2.7c26.1-0.5,52.2-1.6,78.3-2.5
		C920,296.7,920,297.3,920,298z"/>
	<path class="st0" d="M358.2,210.2c11.8,0,23.1,0,35.3,0c-10.7,37.3-21.3,74.2-32,111.7c-10.6,0-21.4,0.1-32.2-0.1
		c-1.2,0-2.6-1.3-3.6-2.3c-23.7-22.6-47.4-45.3-71-68c-0.6-0.6-1.2-1.1-2.5-2.3c-1.4,4.5-2.6,8.4-3.8,12.4
		c-5.4,18.7-10.8,37.3-16,56c-0.9,3.3-2.3,4.4-5.8,4.3c-10-0.3-20-0.1-30.8-0.1c10.7-37.4,21.4-74.5,32.1-111.8
		c10.7,0,21.1-0.2,31.6,0.2c1.9,0.1,4,2,5.6,3.5c23.4,22.4,46.8,45,70.2,67.4c0.5,0.4,1,0.8,2.1,1.5
		C344.4,258.5,351.2,234.5,358.2,210.2z"/>
	<path class="st0" d="M534.6,296.5c-2.3,8.1-4.5,15.7-6.7,23.5c-34.7,1.5-69.1,4.1-103.5-0.2c-7.4-0.9-15-3.5-21.5-7.1
		c-9-5-12.6-14.2-10.3-24c3.5-15.2,7.3-30.4,12.8-45c6.9-18,22.3-26.2,40.4-29.7c25.2-4.9,50.6-4.3,76.1-3.3c12,0.4,23.9,1,36.7,1.6
		c-2.3,8.1-4.4,15.7-6.6,23.6c-10.1-0.5-20.1-1.4-30-1.5c-20.1,0-40.3,0.1-60.4,0.8c-11.3,0.4-20.8,4.7-24.3,16.9
		c-0.1,0.3,0.1,0.6,0.2,1.5c35.3,0,70.6,0,106.8,0c-2.3,8-4.2,15.3-6.6,22.5c-0.4,1.1-3.2,1.8-4.9,1.8c-26.5,0.1-53,0-79.4,0
		c-6.6,0-13.3,0.1-19.9-0.1c-2.9-0.1-4,0.7-4.7,3.6c-2.3,9.9,0.2,15,10.1,15.6c17.2,1.1,34.5,1.6,51.8,1.5
		C505,298.4,519.3,297.2,534.6,296.5z"/>
	<path class="st0" d="M762.2,296.4c-2.3,8-4.4,15.4-6.7,23.5c-11.6,0.6-23.3,1.6-35.1,1.7c-20.1,0.1-40.2,0-60.3-0.8
		c-7.2-0.3-14.5-1.8-21.5-3.9c-15.2-4.6-22.2-16.5-18.1-31.7c6.4-24.2,13.7-48.2,20.8-72.3c0.3-1.1,2.1-2.6,3.3-2.6
		c10.6-0.2,21.3-0.1,32.5-0.1c-3.9,13.4-7.6,26.5-11.3,39.5c-3,10.5-6.1,21.1-9.1,31.6c-2.9,10.2-0.4,14.9,10.3,15.6
		c17.5,1.2,35.2,1.5,52.8,1.5C733.6,298.3,747.5,297.1,762.2,296.4z"/>
	<path class="st0" d="M616.8,210.2c-10.8,37.6-21.4,74.6-32.1,111.7c-11.7,0-23.1,0-35.2,0c2.1-7.3,4-14.2,6-21.2
		c8.2-28.5,16.5-57,24.5-85.6c1.1-4.1,2.8-5.1,6.8-4.9C596.6,210.4,606.4,210.2,616.8,210.2z"/>
	<path class="st0" d="M185.6,233.4c2.4-8.3,4.6-15.6,6.8-23.1c7.9,0,15.7,0,24,0c-2,7.2-3.9,14.3-6,21.2c-0.2,0.8-1.6,1.8-2.5,1.8
		C200.7,233.5,193.5,233.4,185.6,233.4z"/>
</g>
</svg>
