<?xml version="1.0" encoding="utf-8"?>
<!-- Generator: Adobe Illustrator 28.2.0, SVG Export Plug-In . SVG Version: 6.00 Build 0)  -->
<svg version="1.1" id="Calque_1" xmlns="http://www.w3.org/2000/svg" xmlns:xlink="http://www.w3.org/1999/xlink" x="0px" y="0px"
	 viewBox="0 0 881.4 618.7" style="enable-background:new 0 0 881.4 618.7;" xml:space="preserve">
<style type="text/css">
	.st0{fill:#FFFFFF;}
</style>
<g>
	<path class="st0" d="M0.1,231.9c27-0.7,51.5-8.3,73.8-22c20.2-12.5,37.6-28.7,54.1-45.6c24.7-25.3,48.7-51.1,73.3-76.5
		c21.2-21.9,43.5-42.9,69.8-58.6C308.3,7.1,348.5-3.3,391.9,0.9c8.2,0.8,16.3,2.8,24.5,4.4c1.7,0.3,3.5,1.2,4.7,2.4
		c21.5,21.2,42.8,42.4,64.2,63.7c0.2,0.2,0.3,0.6,0.6,1c-8.9-2.8-17.6-6-26.5-8.1c-25.2-6-50.8-9.8-76.7-6.3
		c-31,4.2-59.4,15.6-84.9,33.8c-39,27.8-63,65.1-69.2,112.7c-6.5,50.4,2.1,97.6,34.8,138.3c23.8,29.7,55.6,46.8,92.1,55.9
		c19.7,4.9,39.7,6.4,59.9,6.4c133.5,0,267,0,400.5-0.1c4.2,0,7.1,1.1,10,4.1c17,17.2,34.2,34.1,51.3,51.1c1.1,1.1,2.2,2.4,4,4.4
		c-2.4,0-3.8,0-5.2,0c-275.3,0-550.6,0-826,0c-24.8,0-45-16.8-49.7-41.4c-0.3-1.5-0.3-3-0.3-4.5c0-61,0-122,0-183
		C0.1,234.7,0.1,233.5,0.1,231.9z"/>
	<path class="st0" d="M784,369.3c-5.1,0-10.2,0-15.3,0c-120.2,0-240.3,0-360.5,0c-34.6,0-66.8-8.2-95.5-28.2
		c-10.9-7.6-19.8-17.2-26-29.2c-1.3-2.4-1.2-3.9,0.8-6c39-39.4,77.9-79,116.8-118.5c19.6-19.9,39.3-39.9,58.9-59.9
		c17.4-17.8,44.5-22.6,65.4-10.6c7.2,4.1,13.1,10.6,19.1,16.6c54.8,54.2,109.5,108.6,164.3,162.9c22.9,22.8,45.9,45.5,68.8,68.2
		c1.2,1.2,2.6,2,3.9,3C784.6,368.4,784.3,368.9,784,369.3z M503.2,244.9C503.2,244.9,503.2,244.9,503.2,244.9c0,9-0.2,18,0.2,27
		c0.1,2.6,1.7,6.9,3.4,7.3c2.4,0.6,6.1-0.9,8.2-2.8c10.6-9.6,21-19.4,31.3-29.4c2.6-2.6,5.3-3.5,8.8-3.4c12.7,0.2,25.3,0.1,38-0.1
		c1.7,0,4.7-1,4.9-2.1c0.4-1.9-0.3-4.4-1.3-6.3c-0.9-1.7-2.7-2.9-4.1-4.3c-9.6-9.4-19.3-18.9-28.9-28.3
		c-16.1-15.7-32-31.6-48.2-47.1c-7.2-6.9-17.9-6.6-24.8-0.1c-27.9,26.2-55.8,52.4-83.5,78.8c-1.6,1.5-3.3,5-2.6,6.2
		c1,1.7,4.2,3.1,6.4,3.1c13.6,0.3,27.3,0.3,41,0c2.9-0.1,6.2-1.2,8.4-3c8-6.3,15.5-13,23.3-19.6c3.1-2.6,5.9-5.5,9.4-7.4
		c2.2-1.2,5.6-1.8,7.8-1c1.4,0.5,2.2,4.2,2.3,6.4C503.4,227.6,503.2,236.3,503.2,244.9z"/>
	<path class="st0" d="M93.1,576.7c7.8-13.4,6.3-29.7-3.3-41.6c-9.3-11.5-25.1-16.1-39.2-11.4c-14,4.7-23.9,18-24.7,32.5
		c-1.2,21.4,14.8,37.7,32.9,38.6c1.3,0.1,2.9,0.9,3.7,1.9c5.1,6.3,10,12.8,15.1,19.2c-19.3,7.2-53-0.2-69.3-26.9
		c-15-24.5-9.5-57.3,13.2-76.3c23.5-19.5,60.2-18.7,82.6,1.5c21.6,19.4,28.3,54.5,5.6,83.1c4.8,6,9.7,12.2,15.3,19.3
		c-5.4,0-10-0.6-14.4,0.1c-13.2,2.3-21.9-3-29.2-14c-7.3-11.1-16.5-20.9-25.2-31.7c6.5-5.4,12.7-10.5,19.3-16
		C81.5,562.4,87.1,569.3,93.1,576.7z"/>
	<path class="st0" d="M290.7,500.9c8.5,0,16.8,0,25.5,0c0,17.8,0,35.3,0,54.3c7.2-8.5,13.5-15.9,19.8-23.3
		c8.1-9.5,16.1-19.1,24.2-28.5c1-1.1,2.5-2.5,3.9-2.6c9.7-0.2,19.5-0.1,30.3-0.1c-15.7,18.7-30.8,36.6-46,54.6
		c16.2,20.2,32.3,40.3,49.1,61.4c-11,0-21.1,0.1-31.1-0.1c-1.2,0-2.6-1.8-3.6-3c-10.3-12.6-20.6-25.3-31.3-38.5
		c-5,6-9.9,11.6-14.5,17.4c-0.9,1.1-0.8,3.1-0.8,4.7c-0.1,6.3,0,12.6,0,19.3c-8.5,0-16.7,0-25.4,0
		C290.7,578.1,290.7,539.7,290.7,500.9z"/>
	<path class="st0" d="M851.5,575.2c9.8,13.6,19.5,27,29.9,41.4c-10.1,0-19.2,0.1-28.4-0.1c-0.9,0-2.1-1.5-2.7-2.6
		c-7.8-11.6-15.6-23.2-23.2-34.9c-0.9-1.4-1.6-3.3-1.7-5c-0.2-6.1-0.1-12.2-0.1-18.5c3.3-0.2,6.3-0.3,9.2-0.7
		c8.3-1.3,14-8.3,13.3-16.5c-0.7-8.9-6.9-14.6-15.8-14.6c-6,0-12,0-18.5,0c0,31,0,61.7,0,92.7c-8.8,0-17.1,0-25.6,0
		c0-38.6,0-76.9,0-115.8c15.9,0,31.7-0.1,47.4,0c13.1,0.1,23.5,5.7,31.1,16.1c13.5,18.5,7,46.3-13.2,57.2
		C852.7,574.3,852.2,574.7,851.5,575.2z"/>
	<path class="st0" d="M233,501c0,25,0,49.6-0.1,74.2c0,2.6-0.7,5.3-1.3,7.9c-3.8,17-14.3,27.7-30.7,32.8c-14.6,4.5-29,3.5-42.7-3.1
		c-15-7.2-23.1-20.2-23.8-36.1c-1.1-25.1-0.3-50.2-0.3-75.7c8.5,0,16.9,0,25.7,0c0,10.8,0,21.4,0,32c0,11.6-0.2,23.3,0.1,34.9
		c0.5,17.8,12,27,29.5,23.9c10.8-2,17.5-10.8,17.6-23.9c0.2-20.3,0.1-40.6,0.1-61c0-1.8,0-3.6,0-5.9C215.7,501,224.1,501,233,501z"
		/>
	<path class="st0" d="M729,573.4c0,6.7,0,12.8,0,19.6c14.9,0,29.8,0,44.9,0c0,8.2,0,15.6,0,23.4c-23.4,0-46.8,0-70.6,0
		c0-38.3,0-76.7,0-115.4c23.4,0,46.9,0,70.7,0c0,7.4,0,14.7,0,22.6c-14.8,0-29.7,0-45,0c0,9.3,0,18,0,27.3c10.2,0,20.3,0,30.4,0
		c6.4,0,6.4,0,6.4,6.5c0,5.1,0,10.2,0,16C753.3,573.4,741.3,573.4,729,573.4z"/>
	<path class="st0" d="M479.3,518c-5.9,4.5-11.3,8.6-17,12.9c-7.8-7.6-17.2-10.4-27.9-8.1c-4.4,0.9-8.5,2.5-9.4,7.6
		c-0.9,4.8,1.3,8,7.3,10.4c8.3,3.3,16.8,6.1,25.2,9.3c2.8,1.1,5.5,2.4,8,3.9c14.6,8.4,19.7,18.7,17.4,35.4
		c-2.1,14.5-11.2,23.2-24.9,26.7c-19.1,4.9-37.4,3.3-53.5-9.2c-4.6-3.6-8.1-8.6-12.6-13.5c6.9-4.8,12.8-8.9,19-13.2
		c0.8,0.7,1.4,1.1,1.9,1.8c8.4,11.3,20.1,14,33.3,12.7c6.5-0.6,10.5-4.2,11.4-9.4c0.8-4.7-1.4-8.8-7.5-11.6c-6.6-3-13.7-5-20.3-8.1
		c-6.9-3.2-14.2-6.3-19.8-11.1c-16.7-14.2-13.3-39.2,6.2-49.8c19.8-10.7,46.9-5.8,61.6,11.1C478.1,516.3,478.6,517,479.3,518z"/>
	<path class="st0" d="M587.1,500.6c8.6,0,16.9-0.2,25.2,0.2c1.2,0.1,2.9,2.3,3.4,3.9c7.9,22.6,15.6,45.2,23.3,67.8
		c0.4,1.1,0.8,2.2,1.6,4.2c2.7-8.2,5.1-15.6,7.5-23c5.3-16.3,10.6-32.5,15.7-48.8c1-3.2,2.5-4.4,5.9-4.3c7.5,0.3,14.9,0.1,23,0.1
		c-2.4,7.1-4.6,13.7-6.8,20.3c-10.6,30.6-21.2,61.1-31.7,91.7c-1.1,3.3-2.6,4.4-6,4.2c-5.3-0.3-10.7-0.2-16,0
		c-2.9,0.1-4.4-0.7-5.4-3.6C614,576.9,601,540.6,588,504.4C587.7,503.3,587.5,502.2,587.1,500.6z"/>
	<path class="st0" d="M536.5,616.3c0-38.4,0-76.7,0-115.3c8.3,0,16.6,0,25.5,0c0,30.5,0,61,0,92.1c14.5,0,28.6,0,42.8,0
		c0,8,0,15.5,0,23.3C582.1,616.3,559.4,616.3,536.5,616.3z"/>
	<path class="st0" d="M248.6,500.8c8.5,0,16.7,0,25.4,0c0,38.6,0,76.9,0,115.6c-8.5,0-16.7,0-25.4,0
		C248.6,578.1,248.6,539.7,248.6,500.8z"/>
	<path class="st0" d="M494.3,616.3c0-38.5,0-76.8,0-115.4c8.5,0,16.9,0,25.6,0c0,38.4,0,76.7,0,115.4
		C511.6,616.3,503.2,616.3,494.3,616.3z"/>
</g>
</svg>
