<?xml version="1.0" encoding="utf-8"?>
<!-- Generator: Adobe Illustrator 28.2.0, SVG Export Plug-In . SVG Version: 6.00 Build 0)  -->
<svg version="1.1" id="Layer_1" xmlns="http://www.w3.org/2000/svg" xmlns:xlink="http://www.w3.org/1999/xlink" x="0px" y="0px"
	 viewBox="0 0 1020.5 1019.6" style="enable-background:new 0 0 1020.5 1019.6;" xml:space="preserve">
<style type="text/css">
	.st0{fill:#FFFFFF;}
</style>
<g>
	<path class="st0" d="M510.2,1019.1c-136.9,0-273.9-0.9-410.8,0.5c-47.3,0.5-99.7-34.8-99.5-100C0.4,810.3,0.1,701,0.1,591.8
		c0-163.9,0-327.8,0-491.8c0-46.2,25.3-82.8,66.6-95.6c8.6-2.6,17.8-4.2,26.8-4.3C371.4,0,649.2,0,927.1,0
		c50.6,0,93.3,42.6,93.3,93.2c0,277.5,0,555,0,832.5c0,51.2-42.4,93.4-93.8,93.4C787.8,1019.1,649,1019.1,510.2,1019.1z
		 M511.2,149.1c-96.7-0.6-203.9,4.9-310.8,14.9c-24.7,2.3-40,18.7-40,43.4c0,57,0,114.1,0,171.1c0,34.3,14.7,59.9,44.8,76.9
		c138.5,77.8,276.9,155.9,415.6,233.4c15.9,8.9,22.5,26.5,18.3,43.7c-4.2,17.3-16.4,25.7-36.6,25.7c-52,0-104-0.3-155.9,0.2
		c-17.2,0.2-32.7-4-47.4-12.4c-26.3-15-52.7-29.6-79-44.4c-13.6-7.6-27.8-11.8-43.6-11.5c-31.3,0.5-62.7,0.1-94,0.2
		c-15.4,0-22.1,6.6-22.1,22c-0.1,33.5-0.1,66.9,0,100.4c0,23.7,15.6,40.5,39.3,42.4c34.7,2.8,69.4,5.8,104.1,8.3
		c80.7,5.6,161.5,7.5,242.4,6.6c91.9-1,183.5-6,275-14.8c23.9-2.3,39.7-18.2,39.8-42c0.2-58.1,0.4-116.2-0.1-174.3
		c-0.3-33.1-15.2-58.2-44.5-74.7c-138.8-77.9-277.5-156-416.2-234c-16.2-9.1-22.7-25.4-17.8-43.7c4.6-17,16-25.1,35.2-25.1
		c52.2,0,104.5,0.3,156.7-0.2c17.8-0.2,33.7,4.2,48.9,12.9c25.1,14.4,50.4,28.3,75.5,42.6c15.2,8.7,31.1,13.4,48.9,12.9
		c29.7-0.7,59.5-0.2,89.2-0.2c17.8,0,24.2-6.4,24.3-24.1c0-32.4,0.1-64.8,0-97.2c0-24.7-15.3-41.5-39.8-43.8
		C721.5,154.7,621.8,149.3,511.2,149.1z"/>
</g>
</svg>
