<?xml version="1.0" encoding="utf-8"?>
<!-- Generator: Adobe Illustrator 28.2.0, SVG Export Plug-In . SVG Version: 6.00 Build 0)  -->
<svg version="1.1" id="Calque_1" xmlns="http://www.w3.org/2000/svg" xmlns:xlink="http://www.w3.org/1999/xlink" x="0px" y="0px"
	 viewBox="0 0 328.3 319.8" style="enable-background:new 0 0 328.3 319.8;" xml:space="preserve">
<style type="text/css">
	.st0{fill:#FFFFFF;}
</style>
<g>
	<path class="st0" d="M294.1,61.3c42.1,52.4,49.4,137.6-1.3,200.3c-50.5,62.5-141.5,77.4-209.5,31.2c8.4-4.5,19.2-3.4,26.5-11.5
		c4.5,3.7,9.4-0.9,14.6-2c0.9-0.2,1.5-2.5,1.8-3.8c1.1-5.7,2.1-11.4,3.2-17.1c0.7-3.8,7.7-8.6,11.5-7.7c0.8,0.2,1.6,1.1,1.9,1.9
		c2.6,6.8,8.2,10.7,13.9,14.5c0.9,0.6,2.2,1.5,3,1.3c5-1.4,10-3.1,15.5-4.9c-2.1-3.6-3.9-6.6-5.7-9.7c0.2-0.1,0.3-0.3,0.5-0.4
		c0.6,0.4,1.2,0.8,1.7,1.3c5.3,5.1,11.2,6.5,18.3,4.1c8.8-3,17.8-5.2,26.4-8.5c4.4-1.7,8.3-4.9,12.7-7.7c1.8,3,5,2.1,8.8,0.9
		c12-3.8,24.1-7.2,36.1-10.8c0.8-0.2,1.6-0.4,2.3-0.8c3.3-2.1,4.9-17.4,2.2-20.3c-1.4-1.4-3-2.7-4.3-4.2c-2.5-3.2-5.3-4.9-9.7-2.8
		c7.8-12.7,15.6-25.5,23.4-38.2c4.2-6.8,8.5-13.4,9.4-21.7c0.3-2.6,0-4.4-1.9-6.5c-5.4-6.2-10.7-9.1-19.5-5.4
		c-11.7,4.8-24.2,7.8-36.4,11.7c-5.9,1.9-11.7,4.1-17.7,5.6c-4,1-5.7,3-6.5,6.9c-3.9,19.9-8,39.8-12.2,59.7
		c-0.9,4.4-1.1,9.7-8.3,9.4c1.4-7.2,2.9-14.6,4.4-22c2-9.7,4-19.4,6.3-29c1-4.1,0.1-6.6-2.9-10c-5-5.8-9.7-5.9-16.7-3.9
		c-6.7,1.9-8,5.9-8.8,11.3c-0.3,1.9-0.8,3.9-1.3,6.7c-2.7-2.4-4.8-4.3-7-6.2c-3.4-3-7.1-3.7-11.5-2.2c-25.1,8.3-50.1,16.9-75.4,24.6
		c-9.6,2.9-13,9.4-14.8,17.9c-3.7,18.1-7.4,36.3-11.1,54.4c-0.1,0.4-0.4,0.8-0.8,1.8c-17.8-19.7-29.7-42.3-37.1-67.4
		c13.3-6.7,31-4.6,38.6-20.9c0.2,0,0.4,0,0.5,0.1c5.2,6.9,11.4,4.7,18.1,2.5c21.5-7.2,43.1-14.1,64.7-20.8c3.2-1,4.5-2.6,5-5.7
		c1.7-9.6,3.7-19.1,5.8-30c1.7,5.8,2.5,10.8,4.6,15c1.7,3.3,5.1,5.8,7.6,8.7c3.2,3.8,6.7,2.1,10.7,1.4c7.5-1.3,10.3-5.2,11.7-12.5
		c3.7-20,8.4-39.7,12.7-59.6c0.9-4.1,2.2-7.6,7.9-7.6c-2.1,9.9-4.1,19.6-6.2,29.3c-2.1,9.5-4.2,19-6.3,28.5
		c-0.1,0.3-0.3,0.6-0.3,0.9c0,2.7,11.1,10.9,13.9,10.1c4-1.1,8-2.2,11.8-3.8c1.7-0.7,2.8-2.8,3.7-3.9c2.5,0,5.3,0.6,7.6-0.1
		c19.8-6.1,39.5-12.5,59.2-18.8c7.6-2.5,6.9-0.4,6.5-9.4C295.6,91,294.8,76.7,294.1,61.3z"/>
	<path class="st0" d="M166.9,90.3c-2-6.6-3.7-12.6-5.6-18.5c-1.7-5.2-11.5-9.3-16.8-8.4c-8,1.3-10.6,6-11.6,13.4
		c-1.1,8.3-3.1,16.5-5.7,24.6c0-5.1-0.2-10.1,0.1-15.2c0.2-3.7-0.7-6.3-4.1-8.2c-2.4-1.4-4.5-3.3-7-5.2c-4.8,3.2-13,0.6-14.6,7.6
		c-4.4,0.2-8.3-0.3-11.7,0.7c-10.8,3.4-21.3,7.4-32,11c-8.2,2.8-11.7,9.3-13.5,17.1c-3.4,15.2-6.9,30.3-10,45.6
		c-2.8,13.9-3.2,14.4-22,18.9c0-9-0.6-17.7,0.1-26.4c2.1-25.1,9.2-48.8,22.4-70.4C59.7,36.2,95.4,11,142.4,2.7
		c42.9-7.6,82.3,1.2,118.1,26.2c1.4,1,2.2,2.7,4,4.9c-2.1,0.1-2.6,0.3-2.7,0.1c-4.7-5.5-9.7-5.2-16.3-2.9
		c-16,5.8-32.4,10.5-48.7,15.6c-6,1.9-12.1,3.5-17.9,5.8c-1.9,0.7-4,3-4.5,5c-2.4,10-4.3,20.1-6.4,30.1
		C167.9,88.2,167.5,88.9,166.9,90.3z"/>
	<path class="st0" d="M160.6,141.7c-4.8-16.7-9.6-33.3-14.8-51.3c-1.3,4.6-2.3,7.8-3,11.1c-3.2,15.6-6.3,31.3-9.6,46.9
		c-0.3,1.3-1.6,2.7-2.8,3.3c-2.5,1.2-5.2,1.9-8.6,3.1c1.6-7.7,3-14.7,4.5-21.7c3.8-18.6,7.9-37.1,11.2-55.7
		c1.3-7.4,5.9-9.2,12.3-10.3c4.9,17.4,9.8,34.8,14.8,52.1c0.3,0,0.6,0.1,0.8,0.1c1.3-5.6,2.6-11.1,3.8-16.7
		c2.8-13.2,5.6-26.4,8.2-39.6c0.9-4.3,2.5-7.3,7.4-7.7c1.4-0.1,2.7-0.8,4.9-1.4c-1.9,9.6-3.5,18.7-5.5,27.8
		c-3.8,17.4-8.1,34.6-11.6,52c-0.8,4.1-2.8,5.6-6.1,6.6C164.7,140.8,162.7,141.2,160.6,141.7z"/>
	<path class="st0" d="M103,270.4c2.1-10.1,4.1-20.1,6.3-30c3.6-16.7,7.1-33.4,10.9-50c0.3-1.5,2-3.3,3.5-3.8
		c11.9-4.1,23.8-8,35.8-11.9c4.7-1.5,8.8,2.6,7.7,8c-2.7,12.9-5.3,25.8-8.4,38.6c-1.2,4.9-3.2,9.9-9.1,12
		c3.5,6.7,6.9,13.1,10.2,19.4c-7.9,4.8-9.1,4.5-13.2-3.1c-1.9-3.5-3.5-7.2-5.8-10.4c-0.8-1.1-3.2-1.8-4.7-1.5
		c-3.9,0.8-7.5,2.7-11.4,3.4c-5.1,0.9-7,4-7.6,8.7c-0.5,4.1-1.3,8.1-2.2,12.1C113.5,268.6,111.2,270.2,103,270.4z M156,186.7
		c-9.6,3-17.7,5.5-25.7,8.3c-1,0.3-1.6,2.4-1.9,3.8c-1.7,7.3-3.4,14.6-4.9,22c-0.6,3.1-0.9,6.4-1.4,10.1c7.4-2.2,14.2-3.9,20.7-6.5
		c2.4-0.9,5.1-3.6,5.8-6C151.3,208.5,153.3,198.4,156,186.7z"/>
	<path class="st0" d="M220,122.8c9.1-17.1,17.7-33.3,26.4-49.4c7.5-13.8,15.3-27.5,22.8-41.4c2.4-4.5,5.7-6.5,11.4-6.3
		c1.1,25.5,2.1,50.7,3.2,76.6C262.9,109,241.9,115.7,220,122.8z M272.4,51c-0.7-0.1-1.4-0.3-2-0.4c-9.8,17.8-19.6,35.7-29.4,53.5
		c10-2,19.1-5.3,28.5-7.8c3.6-1,3.8-2.8,3.7-5.6c-0.3-5.5-0.6-10.9-0.7-16.4C272.3,66.6,272.4,58.8,272.4,51z"/>
	<path class="st0" d="M115.8,78.7c0.5,10.6,1,20.6,1.5,30.7c0.7,13.9,1.2,27.9,2,41.8c0.2,3.4-0.7,4.9-4.1,5.9
		c-17.9,5.4-35.6,11.2-53.4,16.8c-1.1,0.3-2.1,0.6-4.3,1.1c4.1-7.9,7.6-15.1,11.4-22.2c11.8-22.4,23.8-44.6,35.5-67
		C106.8,81.1,109.9,78.2,115.8,78.7z M77.4,158.3c11.5-3.7,21.5-7,31.4-10.2c-0.6-14.9-1.3-29.1-1.9-43.4c-0.4-0.1-0.7-0.1-1.1-0.2
		C96.6,121.9,87.4,139.4,77.4,158.3z"/>
	<path class="st0" d="M179.9,236.7c7.6-2.4,15.3-4.7,22.8-7.5c1.5-0.6,2.8-3.3,3.2-5.2c3.3-14.4,6.3-28.9,9.4-43.3
		c1.5-6.9,3-13.8,4.2-20.8c1.1-7,7.1-5.2,11.8-7.7c-1.2,6.6-2.1,12.2-3.3,17.7c-4.2,19.1-8.5,38.2-12.6,57.3
		c-1.5,7-5.3,11.2-12.4,13.1c-8.8,2.3-17.3,5.4-26,8c-7.2,2.1-11-1.1-9.4-8.4c4.5-21.9,9.6-43.7,14-65.6c1.5-7.3,6.1-9.3,12.6-10
		c-5.1,23.7-10.2,47.4-15.3,71C179.1,235.7,179.5,236.2,179.9,236.7z"/>
	<path class="st0" d="M222.4,233.7c-0.1-10.9,6.8-18.1,11.6-26.2c10.9-18.5,22.1-36.9,33.7-56.2c-10.2,3.1-19.5,6-28.9,8.9
		c-0.9-8.4,0.5-10.7,8.3-13.2c12.2-3.9,24.5-7.8,38.1-12.1c-1.8,5.5-2.4,10.5-4.8,14.5c-13.5,22.6-27.3,45-41.8,68.7
		c10.3-3.1,19.4-5.9,28.7-8.7c-0.3,10.3-0.5,10.6-9.5,13.4C246.1,226.3,234.5,230,222.4,233.7z"/>
	<path class="st0" d="M0,193.8c0.9-3.3,1.2-6,2.3-8.3c0.9-1.8,2.5-3.9,4.2-4.6c6-2.3,12.1-4.4,18.3-6c8.3-2.1,11.5-7.9,13.1-15.6
		c3.3-16.2,7-32.4,10.4-48.7c1.8-8.5,6.5-13.8,14.8-16.2c10.5-3.1,21-6.6,32.1-10.1c-0.7,3.3-0.9,5.9-1.8,8.3
		c-0.7,1.7-2.2,3.6-3.7,4.2c-7,2.5-14.1,4.7-21.2,6.8c-6.3,1.8-9.7,6.2-11,12.2c-3.7,16.8-6.9,33.7-10.6,50.5
		c-1.8,8.2-6.8,14.3-15.1,17.1C21.5,186.8,11.2,190.1,0,193.8z"/>
	<path class="st0" d="M97,263.2c-1.7,11.8-1.7,11.7-12.6,14.5c-5.8,1.5-11.4,3.4-17.1,5c-6.8,2-9.6-0.1-8.8-7.1
		c0.8-6.5,2.4-12.9,3.8-19.3c3.2-14.8,6.6-29.5,9.9-44.2c1.5-6.9,5.1-11.3,12.4-13.1c8.8-2.2,17.3-5.5,25.9-8.3
		c1.4,7.5-0.4,10.8-7,13c-4.9,1.6-9.7,3.4-14.6,4.9c-4.9,1.5-7.4,5.1-8.4,9.6c-3.4,15.3-6.5,30.6-9.7,45.9c-1.2,5.8,0.1,7.1,5.8,5.5
		C83.3,267.6,89.8,265.4,97,263.2z"/>
	<path class="st0" d="M214,56.4c-7.4,2.3-13.8,4.3-20.3,6.3c-0.4-8.1,1.3-10.7,8.2-12.9c15.5-4.9,30.9-9.8,46.4-14.7
		c0.7-0.2,1.5-0.3,2.3-0.5c0.2,7.4-1.4,9.8-7.6,12c-4.8,1.7-9.8,3.1-14.5,5.1c-1.5,0.6-3.2,2.4-3.6,4c-3.7,16.4-7.1,32.8-10.7,49.2
		c-1.2,5.8-2.7,11.5-3.6,17.3c-0.5,3.4-2.2,4.8-5.3,5.3c-2.2,0.4-4.4,1.3-7.3,2.2C203.4,105.2,208.6,81.2,214,56.4z"/>
	<path class="st0" d="M110.1,215.6c-2.7,13.3-5.3,26.4-8.1,39.4c-0.2,1-1.3,2.2-2.3,2.5c-4.7,1.5-9.5,2.7-14.8,4.2
		c1.6-7.7,3-15.1,4.6-22.4c0.8-4,1.9-8,2.7-12c1-5,3.6-8.4,8.8-9.5C104,217.1,106.8,216.3,110.1,215.6z"/>
	<path class="st0" d="M85.6,111.3c-7.8,14.9-15.2,29.2-22.6,43.5c-0.3-0.1-0.6-0.2-0.9-0.2c2.7-11.3,5-22.7,8.2-33.9
		C72.3,114,78.8,112.6,85.6,111.3z"/>
	<path class="st0" d="M249.7,58.1c-6.3,11.9-12,22.8-17.7,33.6c-0.3-0.1-0.6-0.2-1-0.3c1.8-9.1,3.4-18.2,5.7-27.2
		c0.4-1.7,3.7-2.8,5.8-3.9C244.4,59.5,246.6,59.1,249.7,58.1z"/>
	<path class="st0" d="M250.9,170.1c-4.3,7.3-8.6,14.7-12.9,22c-0.2-0.1-0.5-0.1-0.7-0.2c1.6-7.1,3.2-14.3,4.6-20.5
		C245.3,170.9,247.9,170.6,250.9,170.1z"/>
	<path class="st0" d="M136.4,221.4c4-6.5-0.8-16.3,10.1-18.1C148.5,212,144.8,219.5,136.4,221.4z"/>
	<path class="st0" d="M261.8,93.4c1.9-3.7,3.7-7.1,5.5-10.6C269.8,90.1,269,91.8,261.8,93.4z"/>
	<path class="st0" d="M98.7,146.3c1.5-3.1,2.8-5.7,4.1-8.4C105.3,143.7,104.9,144.8,98.7,146.3z"/>
</g>
</svg>
