<?xml version="1.0" encoding="utf-8"?>
<!-- Generator: Adobe Illustrator 28.2.0, SVG Export Plug-In . SVG Version: 6.00 Build 0)  -->
<svg version="1.1" id="Calque_1" xmlns="http://www.w3.org/2000/svg" xmlns:xlink="http://www.w3.org/1999/xlink" x="0px" y="0px"
	 viewBox="0 0 363.9 351.6" style="enable-background:new 0 0 363.9 351.6;" xml:space="preserve">
<style type="text/css">
	.st0{fill:#FFFFFF;}
</style>
<g>
	<path class="st0" d="M355.9,305.7c1.3-2.2,2.8-3.8,3.3-5.6c1-3.5,2.5-7.3,2.1-10.8c-1.3-13-9.6-20.8-21-25.5
		c-16.6-6.9-34.1-7.1-51.6-5.3c-14.8,1.5-28.8,5.2-39,18.6v-17.3c-10.8,0-21-0.5-31.1,0.1c-16.5,1-31,5.7-36.3,24.8
		c-4-11.7-12-18.3-22.3-21.7c-23.5-7.7-47.2-7.8-70.5,0.3c-12,4.2-20.3,12.6-22,26c-0.5,4.3-0.1,8.8-0.1,13.6c-4.5,0-9.1,0.1-13.7,0
		c-4.1-0.2-6.4-2.7-6.6-6.7c-0.2-4.8-0.3-9.7-0.1-14.5c0.1-4.3,2.5-6.8,6.9-6.9c4-0.1,7.9,0,12.1,0v-22.4H40.7
		c1.7-9.4,3.4-18.5,5-27.5H0.1c0,25.2-0.2,49.9,0.1,74.5c0.1,9.2,4.1,17.1,12.2,22.4c8.2,5.4,17.5,7.1,27.1,7.2
		c10.1,0.1,20.2,0,30.9,0v-19.9c6.7,11.1,16,15.9,26.5,18.7c13.3,3.5,26.9,4,40.6,2.6c17.8-1.9,34.4-6.1,44.6-23.2v21.7h46.4v-4.8
		c0-9.5-0.1-18.9,0-28.3c0-4,0.3-8.6,5.3-9.5c3.9-0.7,8.1-0.1,12.1-0.1c-1,25,7.1,36.6,31.3,41.9c11.2,2.4,23.1,2.1,34.7,2.9
		c3.8,0.2,7.6,0,11.7,0c-1.7,7.3-3.2,14-4.8,20.9h45v-45.5C361.2,306,358.8,305.8,355.9,305.7z M134.7,299.2c-0.6,6.4-4,9-10.3,8.9
		c-5.8-0.1-7.9-2.3-8.6-9.3c-0.2-2.1-0.3-4.3-0.4-5c0.2-2.8,0.4-4.1,0.5-5.4c0.3-4.3,2.1-7.3,6.8-7.7c6.5-0.7,10.2,1,11.4,6.2
		C134.9,290.8,135.1,295.1,134.7,299.2z M312.8,300.8c-1.3,5.5-4.4,7.4-10.7,7.2c-5.3-0.2-7.4-3.4-7.9-7.9
		c-0.4-3.8-0.4-7.7-0.1-11.5c0.5-5.8,3.1-8,8.7-8.1c6.2-0.1,9.3,2.2,10.2,7.8c0.3,2,0.3,4,0.5,6.3
		C313.3,296.5,313.2,298.8,312.8,300.8z M283.1,114.8c-2.5-11.2-6.4-21.9-13.1-31.8c-14.6,12.4-29,24.5-43.4,36.6
		c-0.8,0.7-1.4,1.5-2.2,2c-2.7,1.6-2,3.5-1,5.9c4.1,10.1,4.4,20.4-0.4,30.4c-5.8,12.1-15.9,18.9-28.7,22c-16.2,4-34.1-3.1-44.3-17.2
		c-9.7-13.5-10.2-31.2-0.9-45.5c6.6-10.2,15.9-16.6,29.2-18.9v33.6c26.4-22.3,51.9-43.9,77.8-65.8C230,43.8,204.4,22.3,178,0
		c0,11.1,0,20.9,0,30.8c0,2.5-0.2,3.9-3.3,4.2c-25.9,2.8-48,13-66.7,31.8c-17.4,17.4-27.1,38-29.7,62c-2.2,20.3,1.4,39.9,11.1,58
		c9.3,17.5,22.6,31.5,39.8,41.6c1,0.6,3.1,3.5,3.8-0.5c0.4,0.9,0.7,1.6,1,2.2c0.1,0.2,0.3,0.5,0.4,0.6c0.1,0.1,0.2,0.2,0.2,0.3
		c0.1,0.1,0.1,0.2,0.2,0.3c0.1,0.2,0.3,0.3,0.5,0.4c0.1,0,0.1,0.1,0.2,0.1c0.1,0,0.1,0.1,0.2,0.1c0.3,0.1,0.7,0.1,1.1-0.1
		c0.2-0.1,0.5-0.2,0.8-0.4c0.2-0.1,0.5-0.3,0.8-0.5c0.3-0.2,0.7-0.5,1.1-0.9c0,0,0,0,0,0c0,0,0,0,0,0c0,0,0,0.1-0.1,0.1
		c0,0,0,0.1-0.1,0.1c-0.2,0.4-0.3,0.7-0.4,1c0,0.1-0.1,0.2-0.1,0.4c0,0.1,0,0.3,0,0.4c0,0.3,0.1,0.6,0.2,0.9c0,0.1,0.1,0.2,0.1,0.2
		c0.1,0.1,0.2,0.3,0.3,0.4c0.1,0.1,0.3,0.3,0.5,0.4c0.2,0.1,0.3,0.2,0.5,0.3c0.2,0.1,0.4,0.2,0.6,0.3c0.4,0.2,0.8,0.4,1.2,0.5
		c11.3,4.7,23,7.8,35.3,8.2c16.3,0.6,32-0.8,47.1-8.9c7.2-3.8,14.8-7,21.4-11.9c14.3-10.4,26.1-23.1,32.9-39.8
		C287.9,160.5,288.3,137.8,283.1,114.8z"/>
	<path class="st0" d="M283.1,114.8c-2.5-11.2-6.4-21.9-13.1-31.8c-14.6,12.4-29,24.5-43.4,36.6c-0.8,0.7-1.4,1.5-2.2,2
		c-2.7,1.6-2,3.5-1,5.9c4.1,10.1,4.4,20.4-0.4,30.4c-5.8,12.1-15.9,18.9-28.7,22c-16.2,4-34.1-3.1-44.3-17.2
		c-9.7-13.5-10.2-31.2-0.9-45.5c6.6-10.2,15.9-16.6,29.2-18.9v33.6c26.4-22.3,51.9-43.9,77.8-65.8C230,43.8,204.4,22.3,178,0
		c0,11.1,0,20.9,0,30.8c0,2.5-0.2,3.9-3.3,4.2c-25.9,2.8-48,13-66.7,31.8c-17.4,17.4-27.1,38-29.7,62c-2.2,20.3,1.4,39.9,11.1,58
		c9.3,17.5,22.6,31.5,39.8,41.6c1,0.6,3.1,3.5,3.8-0.5c0.6-0.8,1.1-1.7,1.7-2.5c1.6,1.6,3.2,3.2,4.8,4.8l0,0c0,0-0.1,0.1-0.1,0.1
		c0,0,0,0.1-0.1,0.1c-0.2,0.4-0.3,0.7-0.4,1c0,0.1-0.1,0.2-0.1,0.4c0,0.1,0,0.3,0,0.4c0,0.3,0.1,0.6,0.2,0.9c0,0.1,0.1,0.2,0.1,0.2
		c0.1,0.1,0.2,0.3,0.3,0.4c0.1,0.1,0.3,0.3,0.5,0.4c0.2,0.1,0.3,0.2,0.5,0.3c0.2,0.1,0.4,0.2,0.6,0.3c0.4,0.2,0.8,0.4,1.2,0.5
		c11.3,4.7,23,7.8,35.3,8.2c16.3,0.6,32-0.8,47.1-8.9c7.2-3.8,14.8-7,21.4-11.9c14.3-10.4,26.1-23.1,32.9-39.8
		C287.9,160.5,288.3,137.8,283.1,114.8z M113.7,158.4L113.7,158.4C113.7,158.4,113.7,158.4,113.7,158.4
		C113.7,158.4,113.7,158.4,113.7,158.4L113.7,158.4l0-0.2l0.2,0L113.7,158.4C113.8,158.3,113.7,158.3,113.7,158.4l0.1,0.2
		C113.8,158.6,113.7,158.5,113.7,158.4z M234,166c1.3-4.7,2.5-8.6,3.6-12.6C242.4,157.5,241.3,162.8,234,166z"/>
	<path class="st0" d="M355.9,305.7c1.3-2.2,2.8-3.8,3.3-5.6c1-3.5,2.5-7.3,2.1-10.8c-1.3-13-9.6-20.8-21-25.5
		c-16.6-6.9-34.1-7.1-51.6-5.3c-14.8,1.5-28.8,5.2-39,18.6v-17.3c-10.8,0-21-0.5-31.1,0.1c-16.5,1-31,5.7-36.3,24.8
		c-4-11.7-12-18.3-22.3-21.7c-23.5-7.7-47.2-7.8-70.5,0.3c-12,4.2-20.3,12.6-22,26c-0.5,4.3-0.1,8.8-0.1,13.6c-4.5,0-9.1,0.1-13.7,0
		c-4.1-0.2-6.4-2.7-6.6-6.7c-0.2-4.8-0.3-9.7-0.1-14.5c0.1-4.3,2.5-6.8,6.9-6.9c4-0.1,7.9,0,12.1,0v-22.4H40.7
		c1.7-9.4,3.4-18.5,5-27.5H0.1c0,25.2-0.2,49.9,0.1,74.5c0.1,9.2,4.1,17.1,12.2,22.4c8.2,5.4,17.5,7.1,27.1,7.2
		c10.1,0.1,20.2,0,30.9,0v-19.9c6.7,11.1,16,15.9,26.5,18.7c13.3,3.5,26.9,4,40.6,2.6c17.8-1.9,34.4-6.1,44.6-23.2v21.7h46.4v-4.8
		c0-9.5-0.1-18.9,0-28.3c0-4,0.3-8.6,5.3-9.5c3.9-0.7,8.1-0.1,12.1-0.1c-1,25,7.1,36.6,31.3,41.9c11.2,2.4,23.1,2.1,34.7,2.9
		c3.8,0.2,7.6,0,11.7,0c-1.7,7.3-3.2,14-4.8,20.9h45v-45.5C361.2,306,358.8,305.8,355.9,305.7z M134.7,299.2c-0.6,6.4-4,9-10.3,8.9
		c-5.8-0.1-7.9-2.3-8.6-9.3c-0.2-2.1-0.3-4.3-0.4-5c0.2-2.8,0.4-4.1,0.5-5.4c0.3-4.3,2.1-7.3,6.8-7.7c6.5-0.7,10.2,1,11.4,6.2
		C134.9,290.8,135.1,295.1,134.7,299.2z M312.8,300.8c-1.3,5.5-4.4,7.4-10.7,7.2c-5.3-0.2-7.4-3.4-7.9-7.9
		c-0.4-3.8-0.4-7.7-0.1-11.5c0.5-5.8,3.1-8,8.7-8.1c6.2-0.1,9.3,2.2,10.2,7.8c0.3,2,0.3,4,0.5,6.3
		C313.3,296.5,313.2,298.8,312.8,300.8z"/>
	<path class="st0" d="M133,227.9c0.6-0.9,1.1-1.7,1.7-2.6c1.6,1.6,3.2,3.2,4.8,4.8C136,233,135,232.7,133,227.9z"/>
	<path class="st0" d="M234,166c1.3-4.7,2.4-8.6,3.6-12.6C242.4,157.5,241.3,162.8,234,166z"/>
	<polygon class="st0" points="113.7,158.4 113.9,158.3 113.7,158.3 	"/>
	<path class="st0" d="M113.7,158.3l0.2,0.4c0,0-0.2-0.2-0.2-0.3C113.7,158.4,113.7,158.3,113.7,158.3z"/>
</g>
</svg>
