<?xml version="1.0" encoding="utf-8"?>
<!-- Generator: Adobe Illustrator 28.2.0, SVG Export Plug-In . SVG Version: 6.00 Build 0)  -->
<svg version="1.1" id="Calque_1" xmlns="http://www.w3.org/2000/svg" xmlns:xlink="http://www.w3.org/1999/xlink" x="0px" y="0px"
	 viewBox="0 0 919.7 396.2" style="enable-background:new 0 0 919.7 396.2;" xml:space="preserve">
<style type="text/css">
	.st0{fill:#FFFFFF;}
</style>
<g>
	<path class="st0" d="M468.7,0c16.7,1.6,36.9,3.2,57.1,5.4c13,1.4,26.3,2.5,39,5.5c23.2,5.5,46.8,10.1,69,19.4
		c16.8,7.1,34.2,12.7,51,19.8c12.6,5.3,24.7,11.9,37,18.2c17,8.7,33.8,17.8,50.8,26.4c8.3,4.2,17,7.4,25.5,11.2
		c7.9,3.5,15.7,7.3,23.6,10.6c13.6,5.6,27.3,11,41,16.3c10.7,4.1,21.8,7.4,32.2,12.1c15,6.8,31,26.9,22.5,47.1
		c-3.2,7.7-7.6,15.3-13,21.8c-9.3,11.2-19.5,21.9-30,32c-6.5,6.2-14.4,11.1-21.7,16.5c-6.5,4.9-13.6,9.3-14.7,18.5
		c-0.3,2.3-0.9,4.7-0.4,6.9c4.1,19.1-1.7,35.2-13.8,50c-11.4,14-26.1,22.8-42.5,29.4c-5.9,2.4-11.7,4.8-17.8,6.5
		c-16.8,4.5-33.7,7.7-51.1,2.7c-12.6-3.6-21.8-10.7-26.1-23.6c-4.1-12.3-9.1-15.1-22-13.2c-17.4,2.6-34.8,5.4-52.3,8
		c-10.5,1.6-21,3.5-31.6,4.2c-18.7,1.2-37.5,1.6-56.3,2.4c-7.5,0.3-15,1.1-22.4,1c-12.8-0.3-25.5-1.1-38.3-1.7
		c-11.1-0.5-22.3-0.8-33.4-1.5c-8.5-0.6-16.9-1.6-25.3-2.5c-21.8-2.4-43.7-4.8-65.5-7.2c-6.7-0.7-11,1.9-13.3,8.6
		c-1.8,5.4-3.1,10.9-4.8,16.3c-3,9.8-9,16.3-18.7,20.5c-19.3,8.3-39.2,9.6-59.6,8.6c-17-0.9-33-5.3-47.8-14.2
		c-15.1-9-19-25.8-17.4-40.1c0.7-6.1-0.1-12.5-1.2-18.6c-1.3-7.2-7.2-10.2-13.6-11.4c-8.5-1.5-17.1-2.7-25.7-3.2
		c-18.8-1.3-37.6-2.2-56.3-3.1c-4.2-0.2-6.5-2-8.5-5.7c-11.7-21.6-23.8-43-35.4-64.7c-8.4-15.7-16-31.7-24.1-47.5
		c-2.9-5.6-6.1-11.1-9.5-16.4c-3-4.8-4.2-9.6-2.2-15.2c2.8-7.8,5.4-15.7,7.7-23.7c1.4-4.9,4.3-6.9,9-6.8c20,0.3,39.2-5,58.5-9.4
		c30-6.8,57.9-19.4,85.8-32c13-5.9,26-11.5,39.1-17.3c11.6-5.2,23.2-10.5,34.9-15.7c12-5.3,23.8-11,36.1-15.5
		c25.9-9.6,52-18.9,79.5-22.9c26.3-3.9,52.8-6.6,79.2-9.5C442.1,1.6,453.6,1.1,468.7,0z M113.2,273.7c-5,0.4-8.8,0.9-12.6,0.9
		c-3.9,0-6.5,2.1-7.5,5.4c-1.4,4.4-2.3,9-2.9,13.6c-0.5,3.3,1.4,5.4,4.9,5.5c5.6,0.2,11.3,0,16.9,0.5c25,2.4,50,4.7,75,7.6
		c22.5,2.6,44.9,5.6,67.3,9c26.5,4,52.9,8.5,79.3,13.1c13.4,2.3,26.7,5.6,40.2,7.5c21.4,3,42.9,5.2,64.4,7.6
		c5.6,0.6,11.3,0.8,16.9,0.9c10.3,0.2,20.6,0.4,30.9,0.4c22.5-0.1,45,0.8,67.3-0.9c26.7-2,53.3-5.6,79.7-10
		c22.8-3.7,45.5-8.5,67.8-14.6c18.6-5.1,36.7-12,54.6-19.3c19.3-7.9,38.2-17,57.1-26c9.6-4.6,18.9-9.7,28.1-15.1
		c7.7-4.5,15.3-9.3,22.4-14.6c8.6-6.5,16.5-13.9,25-20.5c10.4-8.1,18.8-17.8,24.9-29.4c1.5-2.8,2.8-5.9-0.3-8.7c-3.4-3-6.4-0.9-9,1
		c-14.9,10.9-29.6,22-44.6,32.9c-7,5.1-14.2,9.9-21.4,14.7c-8,5.3-15.8,11.1-24.4,15.4c-21,10.8-42.1,21.3-64.8,28.3
		c-15.7,4.8-31,11.1-46.6,16.2c-31.4,10.3-63.5,17.8-96.1,22.6c-23.2,3.4-46.5,5.8-69.9,7.5c-14.9,1.1-29.9,0-44.9,0
		c-27.7,0-55.2-1.6-82.7-5.3c-11.7-1.6-23.5-2.5-35.2-4.3c-19.9-3.1-39.6-6.9-59.5-10.2c-34.5-5.7-69-11.2-103.4-16.8
		c-26.3-4.3-52.6-8.5-78.9-12.6C125.1,274.9,118.6,274.4,113.2,273.7z M653,212c-0.3,0-0.7,0-1,0c-0.2-0.6-0.4-1.2-0.5-1.8
		c-3.3-16.8-6.6-33.6-9.8-50.5c-1.4-7.2-2.7-8.3-10-7.8c-4.3,0.3-8.6,0.7-12.9,1c-3.5,0.3-5.6,1.5-5.9,5.6
		c-1.5,21.6-3.3,43.1-5.1,64.7c-0.2,2-0.4,4-0.6,6c-1.3-1.1-1.6-2.1-1.8-3.2c-1.7-10.9-3.2-21.7-5-32.6c-1.8-10.8-3.8-21.6-5.7-32.4
		c-0.8-4.4-2.8-6.8-7.8-6.2c-6.1,0.7-12.3,0.8-18.4,1.4c-3.4,0.3-5.7,1.4-4.8,6c6.4,31.8,12.5,63.6,18.9,95.4
		c3.2,15.8,6.7,31.5,9.9,47.3c0.8,4.2,3.2,5.5,7,4.9c6.9-1.1,13.7-2.7,20.6-3.5c4.8-0.5,6-3.1,6.3-7.3c0.8-12.3,1.9-24.5,2.9-36.8
		c0.5-5.8,1-11.5,1.4-17.3c1.2,1,1.6,2.1,1.8,3.1c2.5,13.2,5,26.5,7.6,39.7c0.6,3.1,1.6,6.1,2.5,9.1c0.8,2.9,2.5,4,5.6,3.2
		c7.9-1.9,15.9-3.5,23.8-5.6c1.5-0.4,3.3-2.6,3.5-4.1c1.1-7.7,1.9-15.5,2.5-23.3c2.1-28.5,4.2-57.1,6.1-85.7
		c0.6-8.6,0.9-17.3,1.4-25.9c0.3-4.7-2.1-6.9-6.6-6.6c-5.3,0.3-10.6,1-15.9,1.5c-3.8,0.4-5.3,2.5-5.6,6.2
		c-0.7,11.1-1.6,22.2-2.5,33.4C654.5,197.4,653.7,204.7,653,212z M330.3,126.4c-0.5,0.1-0.9,0.1-1.4,0.2c-1.3-5.3-2.3-10.6-3.8-15.8
		c-6-21.3-12.3-42.5-18.2-63.9c-0.9-3.4-2.5-5-5.8-4.7c-6.8,0.5-13.6,1.1-20.4,1.8c-3.2,0.3-4.9,1.9-3.7,5.4
		c0.9,2.7,1.5,5.4,2.4,8.1c7,23.3,13.9,46.5,21.1,69.8c2.9,9.4,6.2,18.6,9.3,28c1.2,3.6,3.4,5.4,7.4,5c7.3-0.6,14.6-1.2,21.9-1.2
		c9.5,0,12.1-1.5,14.2-10.7c3.2-14.1,6.2-28.3,9.2-42.4c2.9-13.7,5.9-27.3,8.5-41.1c0.8-4.2,3.2-5.4,6.9-5.7
		c5.6-0.4,11.3-1,16.9-1.4c12.6-0.8,25.3-1.4,37.9-2.2c16.3-1.1,32.5-2.6,48.8-3.6c12.3-0.8,24.5-1.2,36.8-1.9
		c11-0.6,21.9-1.5,32.8-2.2c10.1-0.6,20.4-0.4,30.4-1.6c10.6-1.2,10,0.5,9.2-11.1c-0.9-12.4,1.7-12.4-13.4-11.8
		c-24.9,1-49.8,3-74.7,4.6c-19.4,1.2-38.9,2.5-58.3,3.8c-29.6,2-59.1,4.2-88.7,6.2c-8.4,0.6-9.6,1.5-11,9.8
		c-3.4,20.2-6.7,40.4-10.2,60.5C333.2,114.5,331.7,120.4,330.3,126.4z M448.4,256.1c0.4,2.5,0.8,4.2,0.9,6.1
		c1.3,15.4,2.6,30.8,3.7,46.2c0.2,3.3,1.3,4.8,4.6,5c6.8,0.3,13.6,0.8,20.4,1.3c4.1,0.3,6.1-1.1,5.8-5.6
		c-1.3-20.6-2.3-41.2-3.6-61.8c-1.5-23.2-3.1-46.5-4.8-69.7c-0.3-3.9-0.9-8-2.3-11.7c-0.6-1.6-3.3-3.4-5-3.4
		c-7,0.2-13.9,0.9-20.9,1.6c-3.2,0.3-3.8,2.8-3.6,5.5c1.1,16.4,2.2,32.8,3.4,49.2c0.5,7.2-0.1,8-7,8.6c-1.7,0.1-3.3,0.3-5,0.5
		c-6.5,0.7-7.2,0.3-7.7-6.3c-1.1-15.9-2.1-31.9-2.9-47.8c-0.4-7.5-2.3-9.5-9.8-9c-4.3,0.3-8.6,1-12.9,1.2c-3.7,0.2-5,2-4.7,5.5
		c0.5,7,1.1,13.9,1.5,20.9c1.1,19.8,2,39.5,3,59.3c0.9,16.4,1.7,32.9,2.8,49.3c0.2,2.5,1.5,6.8,2.9,7.1c7.9,1.4,15.9,1.9,24.1,2.7
		c0.3-3.1,0.6-4.7,0.6-6.4c-0.7-13.8-1.4-27.6-2.2-41.3c-0.1-2.5-0.9-5.4,2.6-5.9C437.6,256.5,442.7,256.4,448.4,256.1z
		 M687.2,282.6c0,6.7,0.8,7.4,7.2,5.8c3.2-0.8,6.4-1.9,9.5-3.1c12-4.3,11.9-4.4,12.4-16.9c0.5-11.9,1.1-12.5,13-12.7
		c0.3,0,0.7,0,1,0c3.7,0,6,1.3,6.1,5.5c0.1,2.1,1.3,4.1,1.8,6.2c0.9,4,3.3,4.5,6.7,3.3c3.8-1.3,7.6-2.4,11.3-3.9
		c6.2-2.6,7.2-4.6,6-11.2c-1.1-5.4-2.1-10.8-3.3-16.1c-3.1-14-6.1-28-9.3-41.9c-3.5-15.6-7.1-31.1-10.5-46.7
		c-0.6-2.9-2.1-4.3-5.1-4.1c-11.6,0.6-23.3,1-34.9,1.8c-1.2,0.1-3,2.1-3.3,3.4c-0.9,5.2-1.5,10.6-1.8,15.9c-0.8,14-1.1,27.9-2,41.9
		C690.7,233.9,688.9,258.2,687.2,282.6z M519.6,182.2c6.5-0.6,12.4-1.4,18.4-1.8c4.4-0.2,6.5-2.1,6.2-6.5c-0.3-4-0.7-7.9-1.1-11.9
		c-0.3-3.8-2.4-5.5-6.3-5.2c-13.6,1-27.2,1.9-40.8,3c-8.3,0.7-8.3-0.4-8,9.3c0.4,11.6,1.6,23.2,2.2,34.8c0.9,17.1,1.5,34.2,2.5,51.3
		c0.8,13.3,1.9,26.5,3,39.8c0.4,4.8,1.1,9.6,1.3,14.4c0.2,5.1,2.7,6.1,7.4,6.1c11.3-0.2,22.7,0,34,0.3c14.1,0.4,15.7-1.4,13.1-15.6
		c-0.8-4.4-2.6-6.9-7.6-6.2c-2.6,0.4-5.3,0-8-0.1c-10.6-0.6-10.8-0.6-11.9-11.2c-0.8-8.6-1.2-17.3-1.8-25.9c-0.2-3.6,1.1-5.1,4.9-5
		c3.6,0.1,7.3-0.4,11-0.7c3.5-0.4,5.4-2.1,5-6c-0.4-4.1-0.5-8.3-0.8-12.5c-0.7-9-3.7-11.2-12.8-9.9c-1,0.1-2,0.4-3,0.4
		c-3.3,0.2-5.3-0.8-5.5-4.7c-0.2-4.1-1.3-8.3-1.4-12.4C519.4,198.3,519.6,190.5,519.6,182.2z M494.8,102.9c-0.5,0.1-1,0.2-1.5,0.4
		c-5.5-9.6-11.1-19.2-16.5-28.9c-1.9-3.5-3.9-7.1-8.4-6.9c-7,0.3-13.9,1-20.8,1.9c-1,0.1-2.6,2.1-2.6,3.3c0,8.1,0.1,16.3,0.5,24.4
		c0.8,15.3,1.9,30.5,2.7,45.8c0.4,7,1.4,8.2,8.2,7.9c2.2-0.1,4.3-0.3,6.5-0.6c8.6-0.9,8.6-0.9,8.6-9.6c0-8.4,0-16.8,0-26.5
		c1.6,2.3,2.5,3.7,3.4,5.2c5.4,8.6,10.6,17.3,16.2,25.7c1.1,1.7,3.9,3.1,6,3.1c6.5,0.2,13,0,19.4-0.7c1.7-0.2,4.5-3.1,4.5-4.7
		c-0.7-23.9-1.9-47.8-2.9-71.7c-0.2-5.1-3.2-6.6-7.6-6.3c-19.1,1.3-17.7-1.6-16.9,18.5C494,89.7,494.5,96.3,494.8,102.9z
		 M377.6,289.9c0.1,0,0.2,0,0.3,0c-1-14.1-2.1-28.2-3.1-42.3c-1.1-16.1-2.2-32.2-3.3-48.3c-0.3-3.9,0.9-5.8,5.3-6.5
		c16.6-2.8,16.1,0.1,14.5-19.5c0-0.3-0.1-0.7-0.1-1c-0.8-5.5-2.4-6.7-8.1-6.2c-13.7,1.2-27.5,2.3-41.2,3.4c-6,0.5-12,0.7-17.9,1.7
		c-1.7,0.3-4.3,2.5-4.5,4.1c-0.4,4.8,0,9.6,0.3,14.4c0.2,3.6,2.4,5.3,5.9,5.4c3.8,0.1,7.7,0.1,11.5,0c2.7-0.1,3.8,1,4,3.8
		c1.3,18.7,2.5,37.5,4,56.2c1.2,14.3,2.6,28.5,4.2,42.7c0.2,1.6,2.5,4.1,4.1,4.3c6.4,1.1,12.8,1.6,19.3,2.3c3.3,0.3,4.5-1.5,4.6-4.4
		C377.6,296.5,377.6,293.2,377.6,289.9z M142.8,274.4c12.5,0.2,21.8-4.7,28.1-16.1c4.4-7.9,6.5-16.2,5.9-24.7
		c-0.7-10.4-1.6-21.1-5-30.8c-4.9-13.8-15.7-21.9-31-22.9c-16-1.1-24.5,8.2-30.9,21.3c-7.6,15.7-6.3,31.5-1.1,47.1
		C114.8,266.5,125.4,274,142.8,274.4z M561.6,149c12.2,0,23.4-2.7,32.1-12.2c9.1-9.9,9.2-25.7-1.2-34.1c-5-4.1-11.9-6.2-18.3-8.4
		c-4.8-1.6-10.1-1.6-15.2-2.8c-3.7-0.9-7.3-2.8-6.6-7.4c0.6-4.2,3.9-6.3,7.9-6.1c5.1,0.3,10.3,0.8,15.1,2.3
		c7.8,2.4,7.7,2.8,12.6-3.5c1-1.3,1.8-2.8,2.7-4.2c2.6-4.2,2.1-6.8-2.6-8.5c-7.7-2.7-15.5-5.6-23.4-6.7c-14-1.8-26.8,1.2-35.3,14.1
		c-5.7,8.7-4.5,22.5,2.2,30.2c5.4,6.2,12.7,6.7,19.8,8.3c5.5,1.2,11.1,2,16.6,3.4c3.3,0.8,6.2,3.1,5.1,6.7c-0.8,2.4-3.5,5.6-5.6,5.8
		c-6.1,0.7-12.8,1.3-18.6-0.4c-13.7-3.9-13-6.9-21.1,7.2c-2.9,5.1-2.5,7.4,3.1,9.7C540.8,146.7,550.9,149.1,561.6,149z M430.2,152.6
		c1,0,2.3-0.1,3.7-0.2c9.2-0.6,10-1.6,7.3-10.3c-4-12.8-8.3-25.6-12.5-38.4c-3.1-9.6-6.3-19.2-9.5-28.8c-1.1-3.3-3.4-4.5-6.9-4.2
		c-7.3,0.6-14.6,1.1-21.9,1.3c-7.6,0.2-9.3,1.5-10.9,8.8c-4.4,20.3-8.8,40.6-13.2,60.9c-0.7,3.2-1.1,6.6-1.7,9.8
		c-0.7,3.4,0.5,5.1,4.1,5c3.8-0.1,7.6-0.2,11.5-0.3c5.4-0.2,9.4-2.2,10.1-8.1c1-8.1,6.1-10.5,13.4-10.1c0.2,0,0.3,0,0.5,0
		c10.2-0.9,10.4-1,13.9,8.7c1.5,4.1,3.5,6.1,7.9,5.7C427.2,152.3,428.5,152.5,430.2,152.6z M273,240.5c4.7-0.6,8.6-1.2,12.6-1.5
		c9.1-0.8,9.2-0.9,9.1-9.6c-0.1-16.4-1.7-14-14.1-14.3c-8.9-0.2-9-0.3-9.4-9.4c0-0.3,0-0.7-0.1-1c-0.3-3.6,1.1-5.5,5-5.8
		c4.8-0.3,9.7-0.9,14.3-2.1c1.8-0.5,4.3-3.2,4.3-4.9c0.1-5.7-0.9-11.4-1.5-18.1c-16.1,1.4-31.3,2.8-46.5,4.1
		c-3.8,0.3-4.4,2.6-4.2,5.9c1,21.8,1.7,43.6,2.8,65.4c0.4,9,1.1,18,2.2,26.9c0.3,2.3,2.3,5.7,4.2,6.2c5.4,1.6,11.1,2.2,16.7,2.7
		c6.1,0.5,7.1-0.5,6.7-6.7c-0.6-9.6-1.4-19.2-2.1-28.9C272.9,246.7,273,243.9,273,240.5z M212.1,277.2c0-9.2,0.3-17-0.1-24.7
		c-0.5-8.6-0.8-8.3,7.5-8.9c15.3-1,12.9-1.2,12.8-13.8c-0.1-8.9-2.2-10.6-10.9-9.6c-10.1,1.1-10.9,0.4-11.4-9.6c0-0.7-0.1-1.3-0.1-2
		c0.2-7.2,0.2-7.2,7.5-7.6c1.5-0.1,3-0.2,4.5-0.3c15.1-1.6,15-1.6,12.7-16.7c-0.6-3.9-1.9-5.8-5.9-5.5c-14.6,0.9-29.1,1.8-43.7,2.9
		c-2.7,0.2-4.2,2.2-4.1,5.2c0.3,12.3,0.1,24.6,0.7,36.9c0.8,15.3,2.3,30.5,3.6,45.7c0.1,1.4,1.2,3.8,2.2,4
		C195.5,274.8,203.6,276,212.1,277.2z M786.4,170.5c0,0,0.1,0,0.1,0c-0.7-7.3-1.4-14.5-1.9-21.8c-0.3-3.4-2-5.3-5.3-5.2
		c-5.3,0.2-10.6,0.8-15.9,0.9c-5.2,0.1-6.2,2.8-5.8,7.4c1.7,19.5,3.4,39,4.9,58.6c1,13.3,1.4,26.6,2.4,39.9
		c0.9,11.4,3.1,12.3,13.2,6.6c6.4-3.5,12.9-6.9,19.7-9.6c7.8-3.1,10-5.6,9.9-13.7c-0.3-12.3-1.6-13.3-12.9-9.1
		c-3.2,1.2-4.5,0.9-4.8-2.8C788.7,204.6,787.5,187.6,786.4,170.5z M229,341.1c8.6,1.4,16.8,2.6,24.9,4.1
		c18.1,3.2,34.5,9.8,46.4,24.6c1.8,2.3,3.9,4.9,6.9,3.2c2.1-1.3,4.3-3.8,4.9-6.2c3.5-13.3-1.4-23.9-14.5-30.3
		c-20.5-10-41.6-17.3-65-16.9c-9.8,0.2-19.2,0.9-28.4,4.1c-7.5,2.6-12.9,10.7-13,18.4c-0.1,5.4,1.1,6.7,6.4,5.9
		c3.8-0.6,7.4-1.9,11.1-2.7C215.5,343.8,222.3,342.5,229,341.1z M826.6,306.7c0.3-0.3,0.6-0.6,0.9-0.9c-1.9-2.2-3.5-5.1-5.9-6.5
		c-9.6-5.5-20.1-6.8-30.9-4.2c-5,1.2-10,2.8-15,3.8c-20,4-38,12-53.3,25.5c-6.4,5.7-12.7,11.9-14.5,21c-1.2,6.4,1.9,11.4,9.7,15
		c5.3,2.5,8.5-0.5,11.3-4.4c1.3-1.7,2.6-3.4,4-5.1c11.9-14.9,26.4-26.1,44.7-32.1c11.6-3.8,23.3-6.1,35.1-1.4
		c9.9,4,11.2,3.3,13.3-7.3C826.2,309,826.4,307.9,826.6,306.7z M837.1,200c-0.5-2.4-1.4-4.6-1.6-6.9c-0.8-12.6-1.3-25.3-2.2-37.9
		c-1-13.4-2.5-14.6-15.7-14c-0.8,0-1.7,0.1-2.5,0.1c-9.4,0.9-10.5,2.3-9.7,11.6c1.1,12.9,2,25.9,3.1,38.8
		c1.1,14.2,2.3,28.5,3.5,42.7c0.2,2.9,1.8,3.8,4.4,2.7c1.5-0.6,3-1.4,4.4-2.3c10.1-6,20.3-12,30.3-18.2c1.7-1.1,3.8-3.5,3.8-5.3
		c-0.1-5.7-1.1-11.3-1.8-18.1C847.1,195.8,842.5,197.7,837.1,200z M256,386.1c4.7-0.9,12.9-1.7,20.5-4.1c8.8-2.8,10.5-12.3,3.8-18.2
		c-2.7-2.4-5.9-4.9-9.2-5.6c-12.3-2.7-24.6-5.5-37.1-6.6c-5.7-0.5-12.2,1.8-17.6,4.4c-7.4,3.6-7.4,14.1-0.5,18.4
		C227.1,381.3,239.4,385.1,256,386.1z M756.1,365.4c17.6-2.9,34.1-7.9,45.9-21.1c7.7-8.6,6.5-16.6-6.2-20.7
		c-1.7-0.6-3.6-0.9-5.4-0.7c-17.6,1.2-30.8,10.5-42,23.1c-1.9,2.2-3.3,5-4.5,7.8c-1.5,3.7-0.7,7.1,3.1,8.9
		C750,364.1,753.3,364.7,756.1,365.4z M857.5,171.2c1.1,1.3,1.9,3.3,3.4,4c2.8,1.5,5.9,2.2,8.8,3.3c3.9,1.5,6.3,0,7.8-3.6
		c1.9-4.8,4-9.5,5.9-14.3c5.5-14.6,5.9-12-7.3-17.5c-5.7-2.4-6.9-1.7-9.3,4.2c-2.1,5.2-4.2,10.5-6.2,15.7
		C859.7,165.5,858.8,167.9,857.5,171.2z M849.9,171c1.5-1.6,3.4-2.9,4.3-4.7c2.5-5.4,4.7-10.9,7-16.4c4.6-11.1,2.8-14.2-9.2-16.3
		c-0.2,0-0.4-0.2-0.5-0.1c-1.9,0.9-4.8,1.4-5.5,2.8c-3.4,8.1-6.4,16.3-9.2,24.6c-0.5,1.5,0.2,4.5,1.3,5.2
		C841.4,168.1,845.3,169.3,849.9,171z M106.8,194.3c-0.4-2-0.4-3.7-1-5.2c-2.2-5.4-4.6-10.7-7.1-15.9c-2.8-5.8-4-6.2-9.9-3.6
		c-1.2,0.5-2.3,1.4-3.6,1.7c-4.4,1.3-4.6,4.3-3.2,7.8c2.6,6.4,5.4,12.8,8,19.2c1.6,4.1,5,4.6,8.2,3.3
		C101.6,200.3,106.2,199.2,106.8,194.3z M72.4,176.8c-3.9,2.3-7.5,4.3-10.8,6.5c-0.7,0.4-1,2.2-0.7,3c3,7.5,6.2,15,9.4,22.5
		c2.2,5.2,6,4.1,9.9,2.2c5.5-2.7,7.5-5.7,5.7-10c-3-7-6.3-14-9.6-20.8C75.6,179.1,74,178.3,72.4,176.8z"/>
	<path class="st0" d="M721.8,194.1c2.2,10.7,4.6,21.3,6.6,32c0.8,4.3-2.9,3.8-5.7,4.2c-3,0.4-4.4-0.6-4.2-3.8
		c0.8-10.8,1.5-21.5,2.2-32.3C721.1,194.2,721.5,194.2,721.8,194.1z"/>
	<path class="st0" d="M152.1,231.5c-0.9,4.2-1.7,10-3.7,15.4c-0.8,2.1-3.9,4.7-6,4.7c-2.4,0-5.8-2-7-4.2c-4.5-8.2-5.5-17.4-5-26.6
		c0.2-3.2,0-6.5,1-9.4c0.9-2.8,2.7-6.6,4.9-7.3c2.6-0.8,6.7,0.5,8.9,2.4c2.4,2.1,4.1,5.7,4.9,9C151.3,220.2,151.3,225.1,152.1,231.5
		z"/>
	<path class="st0" d="M402.3,101.4c1.5,4.4,3.4,8.8,4.5,13.4c0.8,3.3-2.2,3.6-4.6,3.7c-2.3,0.1-5.3,0.5-4.8-3.2
		c0.7-4.6,1.9-9.2,3-13.8C401.1,101.5,401.7,101.4,402.3,101.4z"/>
</g>
</svg>
