<?xml version="1.0" encoding="UTF-8"?>
<svg id="Calque_1" data-name="Calque 1" xmlns="http://www.w3.org/2000/svg" viewBox="0 0 612 612">
  <defs>
    <style>
      .cls-1 {
        fill: #fff;
        stroke-width: 0px;
      }
    </style>
  </defs>
  <path class="cls-1" d="M159.51,261.84c2.79,9.48,5.82,18.32,9,26.63,6.62,16.98,10.04,26.18,7.51,30.97-2.63,4.48-11.19,4.56-30.88-4.02-24.68-11-54.51-27.97-91.14-52.56V56.47c19.1.83,38.11,1.48,57.06,1.96,30.54-1.16,30.86,30.44,31.08,91.25.26,12.94.96,25.13,2.03,36.64,1.59,17.29,1.68,27.68-5.26,31.53.2,1.14.4,2.27.61,3.39,10.15,13.02,15.66,25.93,19.99,40.59ZM98.29,125.31c.86,19.34,2.35,37.39,4.3,54.33.74.51,1.48,1.02,2.22,1.52,3.66,2.48,3.71.4,3.26-3.64-1.47-13.04-2.64-26.77-3.41-41.29-.29-5.5-1.25-8.54-4.42-10-.65-.3-1.29-.61-1.94-.92ZM116.68,230.6c-.69-3.51-1.41-5.76-5.37-8.56-.99-.71-2-1.43-3.01-2.16,2.71,16.07,5.74,31.08,8.87,45.27,1,.65,2,1.29,2.98,1.92,4.31,2.73,4.99,1.82,4.07-1.97-2.64-10.91-5.19-22.37-7.54-34.5Z"/>
  <path class="cls-1" d="M174.4,292.22c-14.29-35.18-25.7-80.59-25.93-144.55-.2-62.29,24.98-94.31,53.94-93.66,14.41-.11,24.23,7.5,26.88,24.22,2.97,16.51-1.23,42.14-7.18,73.29-11.88,64.31-3.78,104.57,12,133.07,15.72,25.75,16.05,39.45-3.04,46.43-19.13,5.43-43.18-5.57-56.66-38.79ZM209.98,294.78c-16.1-31.71-26.84-75.17-21.44-141.14.6-7.09-.33-9.23-1.68-9.26-1.48-.08-2.75,1.96-3.25,9.05-4.56,65.98,6.43,109.81,22.45,141.98,1.72,3.44,3.06,4.22,4.21,4.02,1.05-.19,1.44-1.26-.29-4.65Z"/>
  <path class="cls-1" d="M271.19,267.89c-2.77,2.94-5.47,5.83-8.15,8.65,4.06,6.11,8.68,11.65,13.6,16.83-6.38,7.57-12.73,14.71-19.73,20.75-33.82-40.18-59.74-100.56,6.18-254.55,24.83-.17,49.71-.45,74.7-.79-79.13,131.96-64.91,170.77-30.82,200.65-7.88,7.38-14.76,15.31-21.31,23.13-5.24-4.48-10.14-9.29-14.47-14.67ZM256.23,239.21c-6.3-21.84-5.3-51.36,8.16-94.31-.9.22-1.79.45-2.69.67-15.5,43.88-17.7,75.17-12.35,99.05,2.25-1.76,4.54-3.56,6.87-5.41Z"/>
  <path class="cls-1" d="M351.37,232.22c-9.4-8.82-17.28-17.34-22.27-27.3-1.03.44-2.06.88-3.07,1.33-.39.17-.78.35-1.17.53,1.99,11.3,7.15,21,14.14,30.45-11.44,5.43-20.99,12.26-29.39,19.77-30.93-32.42-39.82-73.84,47.59-198.51,18.7-.26,37.47-.55,56.35-.81,32.06-.59,19.46,18.56-5.84,54.47-12.56,18.32-20.65,33.92-25.25,47.82-3.53,10.9-9.13,18.59-16.79,24.78,4.54,14.01,13.77,26.46,25.06,40.26-15.12.77-28.07,3.34-39.36,7.2ZM325.42,182.15c.72-.29,1.44-.57,2.16-.86,3.47-1.36,4.85-3.05,5.59-5.95,3.84-14.67,12.03-31.97,25.98-53.31,2.77-4.22,3.05-6.08-.63-5.29-.77.17-1.54.33-2.3.5-17.99,27.01-27.43,47.82-30.8,64.91Z"/>
  <path class="cls-1" d="M558,105.15v109.03c1.22,37.56-19.57,39.73-77.06,22.69-33.94-9.02-61.56-12.52-84.43-12.06-16.49-42.21-10.98-82.28,64.08-167.73,19.2-.22,38.54-.4,58.04-.51,30.41-.08,38.11,12.57,39.36,48.58ZM486.68,105.52c1.51-3.52.9-5.18-4.19-4.94-.89.04-1.78.09-2.67.13-18.44,37.02-24.64,67.82-23.93,97.74,1.08.11,2.17.23,3.27.35,6.26.72,7.97-.42,7.96-3.43.08-28.03,5.44-56.82,19.57-89.86Z"/>
  <path class="cls-1" d="M54.89,496.01c.06-12.65.11-25.3.14-37.95,38.48,5.05,72.01,6.81,101.48,6.16-2.82,10.25-6.7,20.92-11.82,32.19-2.1,4.62-.35,5.82,3.44,5.56,3.75-.24,6.53-1.74,8.87-6.35,5.3-10.57,9.38-20.52,12.4-30.04,2.35-9.65-21.29-7.72-50.93-15.48-28.81-7.24-63.63-24.18-64.47-59.66v-39.74c.66-47.89,50.93-31.96,99.2-13.53,24.87,8.77,41.38,14.26,55.53,21.06,13.81,6.75,25.27,14.81,32.16,27.52,3.64,7.1,6.46,14.2,8.11,21.65-19.86,4.43-43.45,6.4-72.01,4.67-.57-8.95-1.95-17.79-3.93-26.74-.83-3.66-3.28-5.23-7.33-5.99-4.07-.77-6.47-.06-5.76,3.77,1.61,8.77,2.74,17.44,3.25,26.18,1.15,8.43,26.49,11.44,48.64,13.24,22.32,2.66,41.45,4.12,34.11,29.43-3.74,10.21-9.44,21.48-17.49,34.21-13.98,22.11-36.48,42.22-57.12,54.47-21.09,12.62-40.32,17.38-58.22,17.33-18.36-.17-29.28-4.2-39.47-13.88-9.59-9.69-18.46-25.04-18.77-48.1Z"/>
  <path class="cls-1" d="M296.42,301.85c48.92,38.92,105.78,68.39,9.4,249.58-18.42.27-36.9.59-55.48.93,42.15-58.83,62.05-98.71,67.95-127.87-2.17,1.1-4.38,2.2-6.63,3.29-6.46,28.57-26.9,67.45-69.42,124.73-18.69.34-37.48.7-56.42,1.02,108.26-123.26,81.82-150.23,42.75-202.98,15.31-2.28,27.29-8.16,37.49-16.07,19.03,17.84,37.27,32.2,44.58,53.21,1.94-1.29,3.84-2.61,5.69-3.93-7.89-21.2-26.64-35.38-45.94-52.83,9.69-8.43,17.85-18.64,26.05-29.09Z"/>
  <path class="cls-1" d="M355.23,448.47c18.33-67.83,1.75-100.27-22.93-124.12-24.39-21.64-25.68-41.93-4.73-60.26,21.15-17.17,49.32-14.37,70.12,17.14,22.17,33.29,43.85,78.7,44.74,156.51.84,76.85-35.56,122.1-72.14,120.25-18.56.18-29.95-9.64-31.09-28.97-1.67-19.13,6.89-47.77,16.03-80.56ZM401.81,436.93c7.17-75.62-14.04-115.08-39.08-142.95-2.69-2.98-4.46-3.01-5.57-2.15-1.24.97-1.3,2.41,1.4,5.31,25.2,27.21,46.02,65.76,37.48,140.63-.96,8.06-.16,10.33,1.63,10.09,1.56-.16,3.35-2.78,4.14-10.93Z"/>
  <path class="cls-1" d="M558,354.14v89.49c-.04,45.85-11.03,51.44-48.4,33.26-4.84-2.43-9.57-4.64-14.21-6.65,1.2,24.7,1.12,51.85-.7,81.92-18.54-.56-37.02-.94-55.45-1.16,31.86-193.6-27.34-256.99-60.66-307.12,22.37-3.16,50.97-.52,89.07,11.2,31.98,9.93,57.04,24.47,71.42,40.9,14.81,16.65,18.94,35.18,18.94,58.17ZM472.07,303.33c-1.31-4.47-3.86-7.36-9.63-9.82-1.21-.51-2.4-1.01-3.58-1.49,9.93,28.58,20.73,61.49,28.15,102.98.89.55,1.79,1.12,2.7,1.7,4.31,2.77,5.32,1.02,4.23-4.98-6.17-34.08-14.24-62.76-21.87-88.39Z"/>
</svg>