<?xml version="1.0" encoding="UTF-8"?>
<svg id="Calque_1" data-name="Calque 1" xmlns="http://www.w3.org/2000/svg" viewBox="0 0 1511.26 1267.24">
  <defs>
    <style>
      .cls-1 {
        fill: #fff;
        stroke-width: 0px;
      }
    </style>
  </defs>
  <g>
    <g>
      <path class="cls-1" d="M769.56,229.47c-1.91-3.74-5.11-8.17-9.71-13.38-4.57-5.14-10.76-9.79-18.6-13.89-7.92-4.07-17.77-6.48-29.75-7.2-3.53,1.62-6.91,4.43-10.07,8.27-3.17,3.89-5.94,7.95-8.38,12.3-2.48,4.35-4.43,8.02-5.83,11.12l-2.45,4.89-8.81-5.29c-5.86-3.24-13.56-6.8-23.06-10.54-9.5-3.74-18.02-6.15-25.51-7.23-7.52-1.04-13.02-1.55-16.55-1.55-7.23,0-14.54,1.04-21.8,3.17-10.79,3.02-20.44,9.82-28.89,20.4-16.41,20.62-38.57,57.35-66.49,110.16-27.92,52.74-44.14,94.59-48.75,125.45-4.53,30.8-6.84,50.08-6.84,57.85,0,41.09,18.28,70.98,54.9,89.73,4.46,1.65,8.89,2.48,13.35,2.48,7.27,0,14.46-2.27,21.51-6.69,11.23-7.52,21.69-18.24,31.26-32.2,9.64-13.96,18.06-28.31,25.36-43.1,7.27-14.82,13.02-27.56,17.23-38.35l6.33-15.83-3.17,16.87c-2.37,11.26-3.78,21.51-4.21,30.76-.47,9.28-.68,15.47-.68,18.49,0,11.73,1.37,22.88,4.17,33.42,3.53,13.38,10.54,22.63,21.16,27.85,9.35,1.83,17.81,2.77,25.33,2.77,17.13,0,29.39-5.04,36.91-15.11-1.62-18.78-2.45-37.2-2.45-55.26,0-43.14,4.89-83.86,14.79-122.11,13.85-54.15,29.47-98.18,46.81-131.97l25.65-50.3-2.77-6.01ZM627.38,366.76c-18.53,44.58-37.63,85.41-57.35,122.61-19.72,37.2-34.83,56.49-45.37,57.89-4.28-8.46-6.37-18.42-6.37-29.9s2.01-24.54,5.97-39.11c7.99-29.32,19.68-59.8,35.04-91.46,15.36-31.66,30.22-59.04,44.65-82.17,14.46-23.1,23.89-36.52,28.39-40.3,3.96-2.81,7.3-4.43,10-4.75,2.7-.36,4.71-.5,6.15-.5,2.12,0,4.1.22,6.01.65,3.24.94,5.94,1.91,8.06,2.84l2.81,1.76c-6.8,23.71-19.46,57.85-37.99,102.43Z"/>
      <path class="cls-1" d="M1067.25,245.01c-1.15-30.26-11.59-45.48-31.26-45.48-32.2,0-64.26,15.47-96.06,46.09-31.91,30.8-61.02,66.45-87.28,107,39.79-103.26,69.91-174.56,90.38-213.85,16.87-33.6,25.36-56.23,25.36-67.96v-2.45c-3.35-14.53-12.09-24.21-26.52-28.96-14.43-4.64-26.91-6.94-37.2-6.94-4.64,0-9.28.36-13.78,1.01l-26.26,75.7c-17.63,50.37-37.85,108.29-60.62,173.41-22.67,65.3-42.89,123.33-60.51,174.46-17.52,50.98-27.06,79.69-28.46,85.99-.25,1.44-.4,2.84-.4,4.25,0,2.59.5,4.78,1.44,6.73,1.65,3.06,3.6,5.79,6.04,8.1,3.2,3.2,5.9,7.59,7.99,12.99,2.16,5.14,6.8,11.48,13.74,18.82,7.09,7.34,13.53,12.59,19.32,15.83,5.94,3.2,10.29,4.75,13.38,4.75,3.35,0,6.19-1.15,8.89-3.45,1.55-1.69,2.45-3.09,2.59-4.14.11-1.01-.14-2.45-.54-3.99-.5-1.91-.9-4.35-1.26-7.2-.25-2.95-.54-5.54-.54-7.59,0-3.99.4-9.14,1.19-15.58,18.28,26.77,37.45,45.44,57.67,55.87,7.99,4.1,15.29,7.45,21.87,9.89-1.8-4.6-2.7-9.79-2.7-15.04,0-24.46,19.82-44.29,44.29-44.29,16.59,0,31.16,9.14,38.75,22.77.65-.9,1.4-1.94,2.05-2.95,5.29-7.59,10.43-15.47,15.58-23.96v-.11c4.89-7.88,9.64-16.23,14.28-25,10.18-18.78,19.97-39.5,29.5-61.92,18.53-43.89,33.06-86.49,43.64-127.97,10.54-41.3,15.83-76.2,15.83-104.66,0-3.45-.14-6.94-.4-10.15ZM967.62,338.59c-9.79,30.76-21.91,63.46-36.05,98.22-14.18,34.65-27.81,64.76-40.83,90.12-12.99,25.51-22.27,38.24-27.52,38.24-13.42,0-26.16-3.89-38.14-11.58-11.94-7.74-17.88-15.07-17.88-21.77v-.76c4.75-21.12,15.97-47.53,33.71-79.08,17.92-31.52,37.6-62.28,59.26-92.43,21.48-30.26,39.11-52.64,52.89-67.46,13.67-14.79,22.52-22.13,26.52-22.13,1.69,0,2.59,1.01,2.84,3.09,0,12.99-4.89,34.75-14.79,65.52Z"/>
    </g>
    <path class="cls-1" d="M480.63,238.96c-4.43-3.96-9.82-8.42-16.15-13.35-6.33-5.18-12.56-9.53-18.67-13.02-4.93-2.84-9.17-4.21-12.66-4.21-.72,0-1.4.11-2.12.32-2.81.72-5.4,2.01-7.7,3.89-2.37,1.91-4.5,3.99-6.33,6.33-1.91,2.12-3.42,3.99-4.61,5.65l-1.4,2.12-13.71-6.33c-8.96-4.46-19.97-8.56-33.1-12.34-10.36-3.02-20.76-4.61-31.34-4.61-2.55,0-5.14.14-7.7.4-13.13,1.19-24.21,6.66-33.1,16.55-8.92,7.92-20.65,23.78-35.22,47.49-14.5,23.67-28.89,51.95-43.1,84.8-14.18,32.85-24.25,63.21-30.26,91.13-5.94,27.95-8.96,51.63-8.96,71.09,0,13.38,1.08,26.52,3.17,39.4,12.41,18.28,25.33,31.08,38.71,38.39,6.08,3.24,11.69,4.89,16.91,4.89,6.58,0,12.52-2.45,17.92-7.38,5.14-5.36,12.92-16.77,23.24-34.11,10.07-17.41,20.62-36.41,31.7-57.02,11.01-20.4,20.36-38.39,28.1-53.82l11.98-22.88-15.83,45.04c-10.15,28.96-21.19,64.18-33.24,105.63-8.92,27.16-19.43,60.8-31.44,100.85-8.71-4.68-20.65-9.97-35.87-15.9-15.25-5.86-30.01-9.25-44.25-10.15-3.35-.25-6.55-.32-9.68-.32-28.28,0-46.2,4.53-53.75,13.64-4.68,4.5-15.36,23.42-32.06,56.77-16.73,33.42-28.39,66.42-35.08,99.05-6.66,32.6-10,57.71-10,75.3,0,29.83,5,59.26,15.04,88.43,6.22,6.73,13.17,11.44,20.83,14.18,7.7,2.81,13.67,4.25,17.88,4.35,4.25.14,6.98.18,8.35.18,5.36,0,9.89-.32,13.67-.97l7.38-1.37c23.6-25.36,48.39-60.77,74.44-106.17-9.57,39.61-14.36,70.16-14.36,91.49v2.66c2.23,12.48,7.2,22.27,14.89,29.39,7.66,7.16,14.36,11.3,20.18,12.52,5.76,1.19,9.86,1.8,12.34,1.8,4.89,0,9.1-1.22,12.7-3.63,12.52-71.34,29.21-142.44,50.01-213.46,4.96-17.02,10.18-34.03,15.61-51.02,20.72-64.8,39.32-121.71,57.85-172.95,9.75-29.75,14.43-42.35,23.71-70.63,3.85-11.66,7.38-23.6,11.23-35.65,18.53-57.2,35.4-108.11,50.66-152.69,15.47-44.33,25.33-72.28,29.54-83.76l-6.33-6.01ZM229.68,754.27c-35.91,71.24-61.34,119.95-76.17,146.14-18.46,32.56-31.62,48.89-39.4,48.89h-.32c-5.61-.43-8.38-7.02-8.38-19.68,0-3.78.25-8.13.72-13.06,7.09-42.71,20.47-83.22,40.04-121.5,11.91-23.28,23.89-42.42,35.87-57.38,21.73-27.2,43.46-40.8,65.26-40.8,3.6,0,7.16.32,10.69.97-10.07,20.15-19.46,38.96-28.31,56.41ZM380.32,316.06c-15.22,25.83-32.45,52.53-51.7,80.23-19.25,27.45-36.27,50.91-51.02,70.37l-21.84,29.54c3.53-34.22,14.46-69.91,32.92-106.96,18.42-37.06,38.28-69.01,59.65-95.92,21.37-26.84,38.1-41.91,50.3-45.19h.36c.72,0,1.51.32,2.48,1.04,1.4.94,2.63,2.09,3.67,3.35,1.08,1.3,1.69,2.41,1.94,3.38-2.59,14.25-11.48,34.36-26.77,60.15Z"/>
    <path class="cls-1" d="M803.56,649.76c-4.64-13.78-15.72-21.37-33.35-22.67h-1.69c-2.05,0-3.6.54-5,1.69-1.55,1.4-2.84,3.09-3.99,5.29-1.15,2.45-1.94,4.89-2.34,7.05-.5,2.45-.76,4.53-1.01,6.08l-.4,2.55-2.59-1.91c-1.8-1.3-4.25-2.73-7.34-3.99-3.2-1.55-6.55-2.73-10.4-3.35-1.3-.29-2.73-.4-4.25-.4-2.45,0-4.89.4-7.34,1.01-1.83.4-3.99,1.19-6.44,1.94-12.63,4.39-30.65,8.89-53.68,13.78-12.12,2.45-23.31,3.6-33.75,3.6-9.53,0-18.53-.9-26.77-2.95-10.69,3.6-16.73,11.08-18.28,22.41-.29,1.26-.4,2.55-.4,3.6,0,9.79,4.89,18.67,14.68,26.77,21.87,21.37,37.6,47.49,47.49,78.29,9.79,30.76,14.57,68.72,14.57,114.05,0,11.08-2.09,23.06-6.33,35.65-4.1,12.74-10.29,24.61-18.53,35.8-8.13,11.08-17.77,20.22-28.85,27.31-11.05,7.2-23.53,10.69-37.31,10.69-7.34,0-12.48-2.99-15.22-9.14-2.81-6.08-4.25-12.88-4.25-20.22l.4-4.64c1.04-9.79,7.74-23.31,19.97-40.44,12.23-17.13,27.02-30.87,44.4-41.45.79-.4,1.04-1.55,1.04-3.2s-.25-3.63-.65-6.08c-.9-5.4-3.6-11.3-7.99-17.88-4.5-6.55-11.08-12.09-19.97-16.48-8.74-4.5-20.08-6.69-33.86-6.69h-3.99l-8.74,5.65c-5.65,3.99-12.23,10.33-19.43,18.82-3.49,4.1-6.84,8.89-9.93,14.28-.4-.5-.9-1.04-1.3-1.55-5.25-6.55-11.84-12.74-19.68-18.42-7.84-5.65-16.98-9.39-27.42-11.19-8.24,16.37-18.67,34-31.3,53.18-12.74,19.07-24.18,34.5-34.5,46.23-10.15,11.69-17.63,17.49-22.27,17.49-.9,0-1.66-.11-2.45-.65-2.55-2.7-3.99-9.14-3.99-19.28,0-3.63.25-7.88.79-12.77,1.3-17.63,4.75-39,10.54-64.11,9.03,3.63,16.62,5.43,23.06,5.43h2.05c6.94-.29,23.96-12.12,50.98-35.69,27.02-23.42,52.38-50.33,76.09-80.59,23.67-30.26,35.51-56.52,35.51-78.79v-3.06c-.65-12.38-8.49-22.16-23.53-29.36-14.97-7.09-30.65-12.12-46.74-14.82-16.12-2.84-27.16-4.25-32.85-4.25h-1.4c-20.22,1.15-43.53,20.47-69.91,57.92-22.67,32.34-42.38,68-59.11,107.14-1.01,2.3-1.91,4.75-2.95,7.05-1.69,4.14-3.35,8.13-4.89,12.23-18.28,46.74-27.42,86.92-27.42,120.24,0,3.09.11,6.19.4,9.03.61,15.83,10.69,33.71,30.22,53.68,19.46,20.08,39.54,30.11,60.26,30.11h3.24c16.33-.61,32.31-7.34,48.14-19.93,15.83-12.48,30.01-26.66,42.74-42.38,3.45-4.25,6.69-8.24,9.64-12.2,0,14.39,3.35,27.92,9.68,40.8,6.55,12.88,15.43,24.97,26.77,36.05,22.67,22.52,44.04,33.71,64.11,33.71,23.57,0,44.29-4.25,62.06-12.74,17.88-8.38,32.7-19.43,44.54-33.21,11.98-13.64,20.98-28.71,27.16-45.33,6.04-16.59,9.14-32.96,9.14-48.89,0-22.92-2.7-44.58-7.99-64.9-5.4-20.22-11.98-38.6-19.82-55.23-7.74-16.48-15.58-31.16-23.42-43.79-7.99-12.48-14.82-22.63-20.62-30.51-1.55-2.05-2.84-3.85-3.99-5.65,5.14-.65,12.88-2.05,23.42-4.39,10.18-2.45,20.36-5.4,30.4-8.99,10.04-3.74,16.87-8.24,20.62-13.28-1.69,8.89-2.59,16.87-2.59,23.96,0,12.09,2.59,21.23,7.59,27.67,8.38,10.54,19.43,17.38,33.46,20.47,2.59-13.64,5.94-26.12,9.68-37.45,3.74-11.33,9.14-24.36,16.08-39.04,4.14-9.64,6.3-18.64,6.3-27.42,0-6.04-1.01-11.69-3.06-17.38ZM448.75,719.66c17.88-22.77,38.75-34.75,62.42-35.8l-16.73,20.36c-10.94,13.64-24.57,29.36-40.94,47.24-16.33,17.88-32.96,34.11-49.94,48.53,12.09-30.91,27.02-57.67,45.19-80.34Z"/>
    <path class="cls-1" d="M899.08,701.89c-4.21-8.89-9.39-14.75-15.51-17.52-6.12-2.77-11.08-4.17-14.86-4.17-2.88,0-5.58.58-8.02,1.65-19.57,26.26-38.86,61.63-57.78,106.03-18.89,44.43-33.93,82.97-45.04,115.71-3.6,10.22-7.23,22.41-11.01,36.55-3.78,14.14-6.04,25.04-6.73,32.7-.65,7.7-.97,12.66-.97,14.89,0,8.89,1.66,15.69,5,20.33,7.12,8.49,14.75,13.38,22.88,14.68,8.13,1.37,13.42,2.05,15.83,2.05,11.84,0,24.39-5.15,37.78-15.36,5.54-52.56,15.54-100.85,30.01-144.92,14.46-44.07,27.42-79.37,38.78-105.85,3.78-9.35,6.87-17.16,9.28-23.35,2.23-6.91,3.38-13.24,3.38-19.07,0-5.32-1.01-10.11-3.02-14.36Z"/>
    <path class="cls-1" d="M1161.51,674.19c-4.21-3.78-9.32-8.02-15.33-12.66-6.04-4.93-11.91-9.03-17.7-12.38-4.68-2.66-8.67-4.03-12.02-4.03-.65,0-1.33.14-1.98.32-2.7.72-5.14,1.94-7.38,3.71-2.23,1.8-4.21,3.78-6.01,6.01-1.8,2.01-3.2,3.78-4.35,5.32l-1.33,2.01-13.02-5.97c-8.45-4.28-18.92-8.13-31.34-11.73-9.86-2.88-19.72-4.32-29.75-4.32-2.45,0-4.89.11-7.38.32-12.41,1.12-22.92,6.33-31.37,15.72-8.45,7.56-19.57,22.59-33.39,45.04-13.78,22.49-27.42,49.29-40.87,80.45-13.49,31.19-23.06,60.05-28.75,86.49-5.68,26.48-8.53,48.97-8.53,67.46,0,12.66,1.01,25.15,3.06,37.38,11.76,17.38,24,29.5,36.7,36.41,5.79,3.13,11.12,4.68,16.05,4.68,6.22,0,11.91-2.37,17.02-7.05,4.89-5.11,12.23-15.87,22.02-32.38,9.61-16.44,19.61-34.5,30.08-54.07,10.43-19.36,19.36-36.37,26.7-51.09l11.33-21.69-15,42.74c-10.04,28.75-21.05,63.9-33.06,105.49-10.25,33.21-18.71,66.49-25.36,99.84-7.16-5.32-14.72-9.53-22.7-12.66-4.68-1.55-9.14-2.37-13.38-2.37s-8.31.83-12.34,2.37c-7.81,3.13-14.68,8.1-20.69,14.86-6.01,6.8-11.12,13.85-15.36,21.19-4.21,7.34-7.34,13.67-9.35,19.03-1.58,3.78-2.55,6.48-2.99,8.02,1.33-.25,2.63-.32,4.03-.32,9.75,0,23.24,3.35,40.37,10,19.79,7.34,37.6,19.25,53.39,35.76,8.45,14.64,17.56,23.13,27.24,25.51,9.68,2.3,17.31,3.49,22.88,3.49,4.21,0,7.99-.54,11.33-1.65v-8.67c0-11.84.68-24.61,2.05-38.39,3.06-32.52,10.22-71.16,21.3-115.89,12.74-47.2,27.74-97.93,45.12-152.22,17.56-54.33,33.6-102.65,48.07-144.96,14.68-42.06,24.07-68.54,28.06-79.44l-6.04-5.68ZM1066.35,747.33c-14.46,24.47-30.8,49.87-49.04,76.09-18.28,26.05-34.39,48.32-48.43,66.77l-20.69,28.03c3.31-32.45,13.74-66.31,31.19-101.46,17.49-35.19,36.34-65.48,56.63-91.02,20.22-25.47,36.16-39.72,47.74-42.85h.32c.65,0,1.4.32,2.3.97,1.33.9,2.52,1.94,3.53,3.17.97,1.26,1.66,2.27,1.83,3.17-2.45,13.56-10.94,32.63-25.4,57.13Z"/>
    <path class="cls-1" d="M1418.28,658.18c-6.44-7.81-13.38-13.56-20.83-17.38-7.48-3.78-12.88-5.65-16.23-5.65h-1.66c-7.99,0-19.9,9.71-35.73,29.21-15.79,19.46-31.88,41.73-48.21,66.74-16.41,25.04-30.37,47.28-41.95,66.59l-17.67,29.07,7.66-19.39c5.14-12.66,10.79-27.92,17.02-45.69,6.22-17.81,11.44-34.14,15.54-48.93,4.1-14.79,6.19-25.98,6.19-33.57,0-1.55-.14-3.02-.32-4.35-2.7-9.79-8.67-16.3-17.88-19.5-9.25-3.24-17.2-4.89-23.85-4.89-6.08,0-12.27,1.04-18.74,3.06l-14.36,41.05c-9.53,27.38-20.58,59.65-33.03,96.82-12.48,37.2-23.64,72.1-33.57,104.7-9.89,32.63-15.83,55.37-17.88,68.25-.43,3.6-.65,7.16-.65,10.69,0,10.51,2.45,20.94,7.3,31.41,6.48,13.78,21.51,20.69,45.12,20.69,12.48-38.93,35.83-92.39,70.08-160.42,34.29-67.96,67.46-119.27,99.51-153.77-1.08,2.7-9.61,22.74-25.54,60.12-15.9,37.42-29.75,73.75-41.52,109.01-11.84,35.26-17.99,59.83-18.42,73.65-.4,13.81-.65,22.02-.65,24.68,0,20.94,3.13,36.95,9.35,48.07,7.34,12.7,14.61,19.82,21.84,21.37,7.23,1.55,13.1,2.37,17.56,2.37,6.22,0,12.56-.9,19.03-2.7,10.87-3.13,21.05-8.56,30.4-16.37-7.56-22.27-11.4-46.05-11.4-71.42,0-4.46.14-8.92.4-13.38,1.51-30.26,8.27-64.33,20.18-102.14,11.91-37.88,24.54-71.92,37.92-102.21,13.31-30.26,20.87-49.72,22.67-58.43.25-1.8.32-3.53.32-5.32,0-8.24-2.7-15.54-8.02-22.02Z"/>
  </g>
  <circle class="cls-1" cx="1420.99" cy="1000.89" r="45.32"/>
</svg>